<?xml version="1.0" encoding="UTF-8" standalone="no"?>
<svg
   xmlns:dc="http://purl.org/dc/elements/1.1/"
   xmlns:cc="http://creativecommons.org/ns#"
   xmlns:rdf="http://www.w3.org/1999/02/22-rdf-syntax-ns#"
   xmlns:svg="http://www.w3.org/2000/svg"
   xmlns="http://www.w3.org/2000/svg"
   xmlns:xlink="http://www.w3.org/1999/xlink"
   xmlns:sodipodi="http://sodipodi.sourceforge.net/DTD/sodipodi-0.dtd"
   xmlns:inkscape="http://www.inkscape.org/namespaces/inkscape"
   x="0"
   y="0"
   width="200"
   height="606"
   version="1.1"
   xml:space="preserve"
   font-family="sans-serif"
   id="svg2"
   inkscape:version="0.48.2 r9819"
   sodipodi:docname="Hadron_colors.svg"><metadata
   id="metadata73"><rdf:RDF><cc:Work
       rdf:about=""><dc:format>image/svg+xml</dc:format><dc:type
         rdf:resource="http://purl.org/dc/dcmitype/StillImage" /></cc:Work></rdf:RDF></metadata><sodipodi:namedview
   pagecolor="#ffffff"
   bordercolor="#666666"
   borderopacity="1"
   objecttolerance="10"
   gridtolerance="10"
   guidetolerance="10"
   inkscape:pageopacity="0"
   inkscape:pageshadow="2"
   inkscape:window-width="1366"
   inkscape:window-height="706"
   id="namedview71"
   showgrid="false"
   inkscape:zoom="0.77887789"
   inkscape:cx="-154.21431"
   inkscape:cy="284.65031"
   inkscape:window-x="-8"
   inkscape:window-y="-8"
   inkscape:window-maximized="1"
   inkscape:current-layer="svg2" />

<defs
   id="defs4">
<g
   id="arrow">
	<polyline
   points="-13,0 13,0 13,60 25,50 0,100 -25,50 -13,60"
   id="polyline7" />
</g>
</defs>

<g
   transform="translate(0,0)"
   id="g9">
	<path
   style="fill:#000000;stroke:none"
   d="m 0,0 200,0 0,200 -200,0 z"
   id="rect11" />
	<g
   style="font-size:20px;fill:#ffffff"
   id="text13"><path
     d="m 3.484375,20 0,-14.3164063 2.8515625,0 3.3886719,10.1367193 c 0.3124916,0.944013 0.5403566,1.650393 0.6835936,2.11914 0.162752,-0.520831 0.416658,-1.285804 0.761719,-2.294922 l 3.427734,-9.9609373 2.548828,0 0,14.3164063 -1.826171,0 0,-11.9824219 L 11.160156,20 9.4511719,20 5.3105469,7.8125 l 0,12.1875 z"
     style="font-size:20px;fill:#ffffff"
     id="path3168" /><path
     d="m 27.097656,16.660156 1.816406,0.22461 c -0.286468,1.0612 -0.817066,1.884766 -1.591796,2.470703 -0.774748,0.585937 -1.76433,0.878906 -2.96875,0.878906 -1.516932,0 -2.71973,-0.467122 -3.608399,-1.401367 -0.888673,-0.934243 -1.333008,-2.244463 -1.333008,-3.930664 0,-1.744785 0.449218,-3.09895 1.347657,-4.0625 0.898434,-0.9635318 2.063798,-1.4453021 3.496093,-1.4453127 1.386712,1.06e-5 2.519524,0.4720153 3.398438,1.4160157 0.878896,0.944019 1.318349,2.272142 1.318359,3.984375 -10e-6,0.104172 -0.0033,0.260421 -0.0098,0.46875 l -7.734375,0 c 0.0651,1.139326 0.387366,2.011721 0.966796,2.617187 0.579423,0.605471 1.302079,0.908205 2.167969,0.908203 0.644525,2e-6 1.194655,-0.169269 1.650391,-0.507812 0.455721,-0.33854 0.817049,-0.878904 1.083984,-1.621094 z m -5.771484,-2.841797 5.791015,0 c -0.07813,-0.872388 -0.299487,-1.526685 -0.664062,-1.96289 -0.559903,-0.677075 -1.285814,-1.015616 -2.177734,-1.015625 -0.807297,9e-6 -1.486007,0.270191 -2.036133,0.810547 -0.550133,0.540372 -0.854495,1.263028 -0.913086,2.167968 z"
     style="font-size:20px;fill:#ffffff"
     id="path3170" /><path
     d="m 30.427734,16.904297 1.738282,-0.273438 c 0.09765,0.696618 0.369463,1.230471 0.815429,1.601563 0.44596,0.371095 1.069332,0.556642 1.870117,0.55664 0.807286,2e-6 1.406244,-0.164386 1.796875,-0.493164 0.390618,-0.328774 0.585931,-0.714515 0.585938,-1.157226 -7e-6,-0.397132 -0.172533,-0.709632 -0.517578,-0.9375 -0.240892,-0.156246 -0.83985,-0.354814 -1.796875,-0.595703 -1.289066,-0.325516 -2.18262,-0.607092 -2.680664,-0.844727 -0.498049,-0.237625 -0.875653,-0.5664 -1.132813,-0.986328 -0.257162,-0.419915 -0.385743,-0.883782 -0.385742,-1.391601 -1e-6,-0.462232 0.105793,-0.890291 0.317383,-1.28418 0.211587,-0.393871 0.499673,-0.721019 0.864258,-0.981445 0.273435,-0.2018133 0.646156,-0.3727116 1.118164,-0.5126958 0.472001,-0.1399634 0.978186,-0.2099503 1.518554,-0.2099609 0.813797,1.06e-5 1.528315,0.1171979 2.143555,0.3515625 0.615227,0.234385 1.069328,0.5517672 1.362305,0.9521482 0.29296,0.4004 0.494783,0.935881 0.605469,1.606446 l -1.71875,0.234375 c -0.07813,-0.533847 -0.304369,-0.950513 -0.678711,-1.25 -0.374355,-0.299471 -0.903326,-0.44921 -1.586914,-0.449219 -0.807296,9e-6 -1.383467,0.133472 -1.728516,0.40039 -0.345055,0.266936 -0.517581,0.579436 -0.517578,0.9375 -3e-6,0.227873 0.07161,0.43295 0.214844,0.615235 0.143226,0.188809 0.367835,0.345059 0.673828,0.46875 0.175777,0.06511 0.693355,0.21485 1.552734,0.449219 1.243483,0.332037 2.110996,0.603846 2.602539,0.815429 0.491529,0.211594 0.87727,0.519211 1.157227,0.922852 0.279939,0.40365 0.419912,0.904951 0.419922,1.503906 -10e-6,0.58594 -0.170908,1.137697 -0.512696,1.655273 -0.341805,0.517579 -0.834969,0.91797 -1.479492,1.201172 -0.644538,0.283203 -1.373704,0.424805 -2.1875,0.424805 -1.34766,0 -2.374677,-0.279948 -3.081055,-0.839844 -0.706381,-0.559894 -1.157227,-1.389972 -1.352539,-2.490234 z"
     style="font-size:20px;fill:#ffffff"
     id="path3172" /><path
     d="m 40.476562,14.814453 c 0,-1.920566 0.533853,-3.34309 1.601563,-4.267578 0.891924,-0.7682189 1.979162,-1.1523331 3.261719,-1.1523437 1.425774,1.06e-5 2.591137,0.4671325 3.496093,1.4013667 0.904938,0.934253 1.357412,2.224942 1.357422,3.872071 -1e-5,1.334639 -0.200205,2.384443 -0.600586,3.149414 -0.4004,0.764975 -0.983081,1.35905 -1.748046,1.782226 -0.764982,0.423177 -1.599942,0.634766 -2.504883,0.634766 -1.451827,0 -2.625329,-0.465495 -3.520508,-1.396484 -0.895183,-0.930988 -1.342774,-2.272132 -1.342774,-4.023438 z m 1.806641,0 c -2e-6,1.328129 0.289711,2.322594 0.869141,2.983399 0.579423,0.660808 1.308589,0.991212 2.1875,0.99121 0.872389,2e-6 1.5983,-0.332029 2.177734,-0.996093 0.579419,-0.66406 0.869132,-1.676429 0.869141,-3.03711 -9e-6,-1.282545 -0.29135,-2.254224 -0.874024,-2.915039 -0.582689,-0.660798 -1.306972,-0.991201 -2.172851,-0.991211 -0.878911,1e-5 -1.608077,0.328785 -2.1875,0.986329 -0.57943,0.657559 -0.869143,1.650397 -0.869141,2.978515 z"
     style="font-size:20px;fill:#ffffff"
     id="path3174" /><path
     d="m 52.263672,20 0,-10.3710937 1.582031,0 0,1.4746097 c 0.761715,-1.1393133 1.861975,-1.7089741 3.300781,-1.7089847 0.624994,1.06e-5 1.199537,0.1123151 1.723633,0.336914 0.52408,0.2246194 0.916332,0.5192157 1.176758,0.8837887 0.260407,0.364593 0.442699,0.797535 0.546875,1.298829 0.06509,0.325528 0.09765,0.895189 0.09766,1.708984 l 0,6.376953 -1.757812,0 0,-6.308594 c -8e-6,-0.716139 -0.06837,-1.25162 -0.205078,-1.606445 -0.136727,-0.35481 -0.37924,-0.638012 -0.727539,-0.849609 -0.348314,-0.21158 -0.756843,-0.317374 -1.225586,-0.317383 -0.748703,9e-6 -1.394862,0.237639 -1.938477,0.71289 -0.543623,0.475269 -0.815433,1.37696 -0.81543,2.705079 l 0,5.664062 z"
     style="font-size:20px;fill:#ffffff"
     id="path3176" /></g>
	<g
   transform="translate(100,115)"
   id="g15">	
		<use
   xlink:href="#arrow"
   transform="rotate(120)"
   style="fill:#ff00ff"
   id="use17" />
		<g
   style="font-size:18px;text-anchor:middle;fill:#ff00ff"
   id="text19"><path
     d="m -93.592773,-55 4.948242,-12.884766 1.836914,0 L -81.53418,-55 l -1.942382,0 -1.50293,-3.902344 -5.387695,0 L -91.782227,-55 z m 3.717773,-5.291016 4.368164,0 -1.344726,-3.568359 c -0.410163,-1.083974 -0.71485,-1.974599 -0.914063,-2.671875 -0.164068,0.826183 -0.395513,1.646494 -0.694336,2.460938 z"
     style="font-size:18px;text-anchor:middle;fill:#ff00ff"
     id="path3179" /><path
     d="m -80.356445,-55 0,-9.333984 1.423828,0 0,1.327148 c 0.685543,-1.025382 1.675777,-1.538076 2.970703,-1.538086 0.562494,1e-5 1.079583,0.101084 1.551269,0.303223 0.471673,0.202157 0.8247,0.467294 1.059083,0.79541 0.234366,0.328133 0.398428,0.717781 0.492187,1.168945 0.05858,0.292976 0.08788,0.805671 0.08789,1.538086 l 0,5.739258 -1.582032,0 0,-5.677734 c -7e-6,-0.644525 -0.06153,-1.126458 -0.18457,-1.445801 -0.123054,-0.319329 -0.341315,-0.574211 -0.654785,-0.764649 -0.313483,-0.190421 -0.681158,-0.285636 -1.103027,-0.285644 -0.673833,8e-6 -1.255376,0.213875 -1.744629,0.641601 -0.489261,0.427742 -0.73389,1.239265 -0.733887,2.434571 l 0,5.097656 z"
     style="font-size:18px;text-anchor:middle;fill:#ff00ff"
     id="path3181" /><path
     d="m -66.882812,-56.415039 0.228515,1.397461 c -0.445317,0.09375 -0.843754,0.140625 -1.195312,0.140625 -0.574222,0 -1.019534,-0.09082 -1.335938,-0.272461 -0.316408,-0.18164 -0.539064,-0.42041 -0.667969,-0.716309 -0.128907,-0.295897 -0.19336,-0.918455 -0.193359,-1.867675 l 0,-5.370118 -1.160156,0 0,-1.230468 1.160156,0 0,-2.311524 1.573242,-0.949219 0,3.260743 1.590821,0 0,1.230468 -1.590821,0 0,5.458008 c -3e-6,0.451174 0.02783,0.741213 0.0835,0.870117 0.05566,0.128908 0.146481,0.231447 0.272461,0.307618 0.125973,0.07617 0.306149,0.114259 0.540528,0.114257 0.175777,2e-6 0.407222,-0.02051 0.694336,-0.06152 z"
     style="font-size:18px;text-anchor:middle;fill:#ff00ff"
     id="path3183" /><path
     d="m -65.335937,-66.06543 0,-1.819336 1.582031,0 0,1.819336 z m 0,11.06543 0,-9.333984 1.582031,0 0,9.333984 z"
     style="font-size:18px;text-anchor:middle;fill:#ff00ff"
     id="path3185" /><path
     d="m -61.626953,-54.226562 1.538086,0.228515 c 0.06445,0.474608 0.243161,0.820311 0.536133,1.03711 0.392574,0.292966 0.928707,0.43945 1.608398,0.439453 0.732417,-3e-6 1.297846,-0.146487 1.696289,-0.439453 0.398431,-0.292971 0.667962,-0.703127 0.808594,-1.230469 0.08202,-0.322266 0.12011,-0.999023 0.114258,-2.030274 -0.691413,0.814454 -1.55274,1.22168 -2.583985,1.22168 -1.283206,0 -2.276369,-0.46289 -2.979492,-1.388672 -0.703126,-0.925779 -1.054688,-2.036129 -1.054687,-3.331055 -10e-7,-0.890619 0.161132,-1.712395 0.483398,-2.465332 0.322264,-0.752921 0.789549,-1.334464 1.401856,-1.744628 0.612301,-0.410147 1.331539,-0.615225 2.157714,-0.615235 1.101557,1e-5 2.009759,0.445322 2.72461,1.335938 l 0,-1.125 1.458984,0 0,8.068359 c -9e-6,1.453125 -0.147958,2.482909 -0.443848,3.089355 -0.295906,0.606443 -0.764656,1.085447 -1.40625,1.437012 -0.641607,0.351559 -1.431157,0.52734 -2.368652,0.527344 -1.113285,-4e-6 -2.012698,-0.250492 -2.698242,-0.751465 -0.685548,-0.500979 -1.016602,-1.255373 -0.993164,-2.263183 z m 1.30957,-5.607422 c -2e-6,1.224613 0.243162,2.118166 0.729492,2.680664 0.486325,0.562501 1.095699,0.843751 1.828125,0.84375 0.726557,10e-7 1.335932,-0.279784 1.828125,-0.839356 0.492181,-0.559567 0.738274,-1.437008 0.738282,-2.632324 -8e-6,-1.142572 -0.253425,-2.003899 -0.760254,-2.583984 -0.506842,-0.580071 -1.117682,-0.870109 -1.83252,-0.870118 -0.703129,9e-6 -1.300784,0.285653 -1.792969,0.856934 -0.49219,0.571296 -0.738283,1.41944 -0.738281,2.544434 z"
     style="font-size:18px;text-anchor:middle;fill:#ff00ff"
     id="path3187" /><path
     d="m -51.334961,-55 0,-9.333984 1.423828,0 0,1.415039 c 0.363278,-0.662101 0.698727,-1.098624 1.006348,-1.309571 0.307613,-0.210928 0.645992,-0.316396 1.015137,-0.316406 0.533198,1e-5 1.075189,0.169931 1.625976,0.509766 l -0.544922,1.467773 c -0.386724,-0.228508 -0.773442,-0.342765 -1.160156,-0.342773 -0.345707,8e-6 -0.656254,0.104011 -0.931641,0.312011 -0.275394,0.208016 -0.471682,0.49659 -0.588867,0.865723 -0.175784,0.562506 -0.263674,1.17774 -0.263672,1.845703 l 0,4.886719 z"
     style="font-size:18px;text-anchor:middle;fill:#ff00ff"
     id="path3189" /><path
     d="m -38.916016,-58.005859 1.634766,0.202148 c -0.257821,0.95508 -0.73536,1.69629 -1.432617,2.223633 -0.697273,0.527344 -1.587897,0.791015 -2.671875,0.791016 -1.365238,-10e-7 -2.447757,-0.42041 -3.247559,-1.261231 -0.799806,-0.840818 -1.199707,-2.020016 -1.199707,-3.537598 0,-1.570306 0.404296,-2.789055 1.212891,-3.65625 0.808591,-0.867178 1.857418,-1.300771 3.146484,-1.300781 1.248041,1e-5 2.267571,0.424814 3.058594,1.274414 0.791007,0.849617 1.186514,2.044928 1.186523,3.585938 -9e-6,0.09375 -0.0029,0.234379 -0.0088,0.421875 l -6.960937,0 c 0.05859,1.025394 0.34863,1.810549 0.870117,2.355468 0.521481,0.544924 1.171871,0.817384 1.951172,0.817383 0.580072,10e-7 1.075189,-0.152342 1.485351,-0.457031 0.41015,-0.304686 0.735345,-0.791013 0.975586,-1.458984 z m -5.194336,-2.557618 5.211915,0 c -0.07032,-0.785149 -0.269539,-1.374016 -0.597657,-1.766601 -0.503912,-0.609367 -1.157232,-0.914054 -1.959961,-0.914063 -0.726566,9e-6 -1.337406,0.243172 -1.832519,0.729493 -0.49512,0.486335 -0.769046,1.136725 -0.821778,1.951171 z"
     style="font-size:18px;text-anchor:middle;fill:#ff00ff"
     id="path3191" /><path
     d="m -28.896484,-58.005859 1.634765,0.202148 c -0.257821,0.95508 -0.73536,1.69629 -1.432617,2.223633 -0.697273,0.527344 -1.587897,0.791015 -2.671875,0.791016 -1.365238,-10e-7 -2.447757,-0.42041 -3.247559,-1.261231 -0.799805,-0.840818 -1.199707,-2.020016 -1.199707,-3.537598 0,-1.570306 0.404296,-2.789055 1.212891,-3.65625 0.808591,-0.867178 1.857418,-1.300771 3.146484,-1.300781 1.248041,1e-5 2.267571,0.424814 3.058594,1.274414 0.791007,0.849617 1.186514,2.044928 1.186524,3.585938 -10e-6,0.09375 -0.0029,0.234379 -0.0088,0.421875 l -6.960938,0 c 0.05859,1.025394 0.34863,1.810549 0.870117,2.355468 0.521481,0.544924 1.171871,0.817384 1.951172,0.817383 0.580073,10e-7 1.075189,-0.152342 1.485352,-0.457031 0.410149,-0.304686 0.735344,-0.791013 0.975586,-1.458984 z m -5.194336,-2.557618 5.211914,0 c -0.07032,-0.785149 -0.269539,-1.374016 -0.597656,-1.766601 -0.503913,-0.609367 -1.157233,-0.914054 -1.959961,-0.914063 -0.726567,9e-6 -1.337406,0.243172 -1.83252,0.729493 -0.49512,0.486335 -0.769045,1.136725 -0.821777,1.951171 z"
     style="font-size:18px;text-anchor:middle;fill:#ff00ff"
     id="path3193" /><path
     d="m -25.266602,-55 0,-9.333984 1.423829,0 0,1.327148 c 0.685543,-1.025382 1.675777,-1.538076 2.970703,-1.538086 0.562494,1e-5 1.079583,0.101084 1.551269,0.303223 0.471672,0.202157 0.824699,0.467294 1.059082,0.79541 0.234367,0.328133 0.398429,0.717781 0.492188,1.168945 0.05859,0.292976 0.08788,0.805671 0.08789,1.538086 l 0,5.739258 -1.582031,0 0,-5.677734 c -7e-6,-0.644525 -0.06153,-1.126458 -0.18457,-1.445801 -0.123054,-0.319329 -0.341315,-0.574211 -0.654785,-0.764649 -0.313483,-0.190421 -0.681158,-0.285636 -1.103028,-0.285644 -0.673832,8e-6 -1.255375,0.213875 -1.744629,0.641601 -0.48926,0.427742 -0.733889,1.239265 -0.733886,2.434571 l 0,5.097656 z"
     style="font-size:18px;text-anchor:middle;fill:#ff00ff"
     id="path3195" /></g>	
		<use
   xlink:href="#arrow"
   transform="rotate(-60)"
   style="fill:#00ff00"
   id="use21" />	
		<g
   style="font-size:18px;text-anchor:middle;fill:#00ff00"
   id="text23"><path
     d="m 37.386719,59.946289 0,-1.511719 5.458008,-0.0088 0,4.78125 c -0.837903,0.66797 -1.70216,1.170411 -2.592774,1.507324 -0.890634,0.336914 -1.804696,0.505371 -2.742187,0.505372 -1.265632,-1e-6 -2.415533,-0.270996 -3.449707,-0.812989 -1.034183,-0.541991 -1.814944,-1.325681 -2.342286,-2.351074 -0.527345,-1.025387 -0.791016,-2.170893 -0.791015,-3.436523 -1e-6,-1.253899 0.262206,-2.424308 0.786621,-3.511231 0.524412,-1.086903 1.278805,-1.894031 2.263183,-2.421387 0.984371,-0.52733 2.118158,-0.791002 3.401368,-0.791015 0.931632,1.3e-5 1.773916,0.150892 2.526855,0.452637 0.752919,0.30177 1.343251,0.722179 1.770996,1.26123 0.427722,0.539073 0.752917,1.242198 0.975586,2.109375 l -1.538086,0.421875 c -0.19337,-0.65624 -0.433604,-1.171865 -0.720703,-1.546875 -0.287119,-0.374989 -0.697275,-0.675282 -1.230469,-0.900879 -0.533211,-0.225574 -1.125008,-0.338367 -1.77539,-0.338379 -0.779304,1.2e-5 -1.453131,0.118664 -2.021485,0.355957 -0.568364,0.237316 -1.026859,0.549327 -1.375488,0.936035 -0.348636,0.386729 -0.619632,0.811533 -0.812988,1.274414 -0.328128,0.796884 -0.49219,1.661141 -0.492188,2.592774 -2e-6,1.148443 0.197751,2.109379 0.593262,2.882812 0.395504,0.773441 0.971187,1.347659 1.727051,1.722657 0.755853,0.375001 1.558587,0.562501 2.408203,0.5625 0.738273,10e-7 1.458975,-0.142089 2.162109,-0.42627 0.703115,-0.284178 1.236318,-0.5874 1.59961,-0.909668 l 0,-2.399414 z"
     style="font-size:18px;text-anchor:middle;fill:#00ff00"
     id="path3198" /><path
     d="m 45.129883,65 0,-9.333984 1.423828,0 0,1.415039 c 0.363278,-0.662101 0.698727,-1.098624 1.006348,-1.309571 0.307613,-0.210928 0.645991,-0.316396 1.015136,-0.316406 0.533198,1e-5 1.07519,0.169931 1.625977,0.509766 l -0.544922,1.467773 c -0.386724,-0.228508 -0.773442,-0.342765 -1.160156,-0.342773 -0.345708,8e-6 -0.656254,0.104011 -0.931641,0.312011 -0.275394,0.208016 -0.471683,0.49659 -0.588867,0.865723 -0.175784,0.562506 -0.263675,1.17774 -0.263672,1.845703 l 0,4.886719 z"
     style="font-size:18px;text-anchor:middle;fill:#00ff00"
     id="path3200" /><path
     d="m 57.548828,61.994141 1.634766,0.202148 c -0.257822,0.95508 -0.73536,1.69629 -1.432617,2.223633 -0.697273,0.527344 -1.587897,0.791015 -2.671875,0.791015 -1.365239,0 -2.447757,-0.420409 -3.247559,-1.26123 -0.799806,-0.840818 -1.199708,-2.020016 -1.199707,-3.537598 -10e-7,-1.570306 0.404296,-2.789055 1.212891,-3.65625 0.808591,-0.867178 1.857418,-1.300771 3.146484,-1.300781 1.248041,1e-5 2.267571,0.424814 3.058594,1.274414 0.791006,0.849617 1.186514,2.044928 1.186523,3.585938 -9e-6,0.09375 -0.0029,0.234379 -0.0088,0.421875 l -6.960937,0 c 0.05859,1.025394 0.34863,1.810549 0.870117,2.355468 0.52148,0.544924 1.17187,0.817384 1.951172,0.817383 0.580072,10e-7 1.075189,-0.152342 1.485351,-0.457031 0.410149,-0.304686 0.735344,-0.791013 0.975586,-1.458984 z m -5.194336,-2.557618 5.211914,0 c -0.07032,-0.785149 -0.269538,-1.374016 -0.597656,-1.766601 -0.503913,-0.609367 -1.157232,-0.914054 -1.959961,-0.914063 -0.726567,9e-6 -1.337406,0.243172 -1.832519,0.729493 -0.49512,0.486335 -0.769046,1.136725 -0.821778,1.951171 z"
     style="font-size:18px;text-anchor:middle;fill:#00ff00"
     id="path3202" /><path
     d="m 67.568359,61.994141 1.634766,0.202148 c -0.257821,0.95508 -0.73536,1.69629 -1.432617,2.223633 -0.697273,0.527344 -1.587897,0.791015 -2.671875,0.791015 -1.365238,0 -2.447757,-0.420409 -3.247559,-1.26123 -0.799806,-0.840818 -1.199707,-2.020016 -1.199707,-3.537598 0,-1.570306 0.404296,-2.789055 1.212891,-3.65625 0.808591,-0.867178 1.857418,-1.300771 3.146484,-1.300781 1.248041,1e-5 2.267571,0.424814 3.058594,1.274414 0.791007,0.849617 1.186514,2.044928 1.186523,3.585938 -9e-6,0.09375 -0.0029,0.234379 -0.0088,0.421875 l -6.960937,0 c 0.05859,1.025394 0.34863,1.810549 0.870117,2.355468 0.521481,0.544924 1.171871,0.817384 1.951172,0.817383 0.580072,10e-7 1.075189,-0.152342 1.485351,-0.457031 0.41015,-0.304686 0.735345,-0.791013 0.975586,-1.458984 z m -5.194336,-2.557618 5.211914,0 c -0.07032,-0.785149 -0.269538,-1.374016 -0.597656,-1.766601 -0.503912,-0.609367 -1.157232,-0.914054 -1.959961,-0.914063 -0.726566,9e-6 -1.337406,0.243172 -1.832519,0.729493 -0.49512,0.486335 -0.769046,1.136725 -0.821778,1.951171 z"
     style="font-size:18px;text-anchor:middle;fill:#00ff00"
     id="path3204" /><path
     d="m 71.198242,65 0,-9.333984 1.423828,0 0,1.327148 c 0.685544,-1.025382 1.675777,-1.538076 2.970703,-1.538086 0.562494,1e-5 1.079584,0.101084 1.55127,0.303223 0.471672,0.202157 0.824699,0.467294 1.059082,0.79541 0.234367,0.328133 0.398429,0.717781 0.492187,1.168945 0.05859,0.292976 0.08788,0.805671 0.08789,1.538086 l 0,5.739258 -1.582031,0 0,-5.677734 c -7e-6,-0.644525 -0.06153,-1.126458 -0.18457,-1.445801 -0.123054,-0.319329 -0.341316,-0.574211 -0.654786,-0.764649 -0.313482,-0.190421 -0.681158,-0.285636 -1.103027,-0.285644 -0.673833,8e-6 -1.255375,0.213875 -1.744629,0.641601 -0.489261,0.427742 -0.733889,1.239265 -0.733887,2.434571 l 0,5.097656 z"
     style="font-size:18px;text-anchor:middle;fill:#00ff00"
     id="path3206" /></g>
		<path
   style="fill:#ffffff;stroke:none"
   d="M 25,0 C 25,13.807119 13.807119,25 0,25 -13.807119,25 -25,13.807119 -25,0 c 0,-13.807119 11.192881,-25 25,-25 13.807119,0 25,11.192881 25,25 z"
   id="circle25" />
	</g>
</g>
<g
   transform="translate(0,203)"
   id="g27">
	<path
   style="fill:#000000;stroke:none"
   d="m 0,0 200,0 0,200 -200,0 z"
   id="rect29" />
	<g
   style="font-size:20px;fill:#ffffff"
   id="text31"><path
     d="m 3.4648438,20 0,-14.3164063 5.3710937,0 c 1.0937421,1.44e-5 1.9710195,0.144871 2.6318355,0.4345704 0.660798,0.2897271 1.178375,0.7356902 1.552735,1.3378906 0.374337,0.6022255 0.561512,1.2321077 0.561523,1.8896484 -1.1e-5,0.6119892 -0.166027,1.1881609 -0.498047,1.7285159 -0.332042,0.540373 -0.833343,0.97657 -1.503906,1.308594 0.865875,0.253913 1.531565,0.686855 1.99707,1.298828 0.465483,0.611984 0.69823,1.33464 0.698243,2.167968 -1.3e-5,0.670577 -0.141614,1.293949 -0.424805,1.870118 -0.283215,0.576173 -0.633149,1.020509 -1.049805,1.333007 -0.416677,0.312501 -0.939137,0.548503 -1.567383,0.708008 C 10.605135,19.920247 9.8352786,20 8.9238281,20 z m 1.8945312,-8.300781 3.0957031,0 c 0.8398365,8e-6 1.4420494,-0.05533 1.8066409,-0.166016 0.481762,-0.14322 0.844717,-0.38085 1.088867,-0.71289 0.244131,-0.332022 0.366201,-0.748688 0.366211,-1.2500005 C 11.716787,9.095063 11.602855,8.6767691 11.375,8.3154297 11.147126,7.9541136 10.821606,7.706718 10.398438,7.5732422 9.9752524,7.4397912 9.2493417,7.3730595 8.2207031,7.3730469 l -2.8613281,0 z m 0,6.611328 3.5644531,0 c 0.6119717,2e-6 1.0416587,-0.02278 1.2890629,-0.06836 0.436189,-0.07812 0.800772,-0.208331 1.09375,-0.390625 0.292959,-0.182289 0.533844,-0.447588 0.722656,-0.795898 C 12.218089,16.70736 12.31249,16.305342 12.3125,15.849609 12.31249,15.31576 12.175771,14.851893 11.902344,14.458008 11.628897,14.064134 11.249665,13.787441 10.764648,13.62793 10.279614,13.468431 9.5813726,13.388678 8.6699219,13.388672 l -3.3105469,0 z"
     style="font-size:20px;fill:#ffffff"
     id="path3126" /><path
     d="m 23.445312,18.720703 c -0.651049,0.553386 -1.277676,0.944011 -1.879882,1.171875 -0.602219,0.227865 -1.248378,0.341797 -1.938477,0.341797 -1.139326,0 -2.014976,-0.27832 -2.626953,-0.834961 -0.61198,-0.556639 -0.917969,-1.267902 -0.917969,-2.133789 0,-0.507809 0.115559,-0.971676 0.34668,-1.391602 0.231118,-0.419917 0.533853,-0.756831 0.908203,-1.010742 0.374347,-0.253901 0.795896,-0.445958 1.264648,-0.576172 0.345049,-0.09114 0.865882,-0.17903 1.5625,-0.263671 1.419265,-0.169265 2.464186,-0.371088 3.134766,-0.605469 0.0065,-0.240879 0.0098,-0.393873 0.0098,-0.458985 -8e-6,-0.716138 -0.166024,-1.220694 -0.498047,-1.513671 -0.449226,-0.397127 -1.116543,-0.595694 -2.001953,-0.595704 -0.826828,1e-5 -1.437179,0.144866 -1.831055,0.434571 -0.393883,0.289722 -0.685224,0.802416 -0.874023,1.538086 l -1.71875,-0.234375 c 0.156248,-0.735669 0.41341,-1.329744 0.771484,-1.782227 0.358071,-0.452464 0.875648,-0.800771 1.552734,-1.0449218 0.67708,-0.2441302 1.461584,-0.3662003 2.353516,-0.3662109 0.88541,1.06e-5 1.60481,0.1041771 2.158203,0.3125 0.553377,0.2083434 0.960278,0.4703877 1.220703,0.7861327 0.260408,0.315764 0.442699,0.714527 0.546875,1.196289 0.05858,0.299487 0.08788,0.839851 0.08789,1.621094 l 0,2.34375 c -10e-6,1.634117 0.03742,2.667645 0.112305,3.100586 0.07486,0.432943 0.222971,0.847982 0.444335,1.245117 l -1.835937,0 c -0.1823,-0.364583 -0.299487,-0.791015 -0.351563,-1.279297 z m -0.146484,-3.925781 c -0.638028,0.260421 -1.595058,0.481775 -2.871094,0.664062 -0.72266,0.104171 -1.233727,0.221359 -1.533203,0.351563 -0.299482,0.130212 -0.530602,0.320642 -0.693359,0.571289 -0.162763,0.250654 -0.244143,0.528974 -0.244141,0.834961 -2e-6,0.468752 0.177406,0.859377 0.532227,1.171875 0.354814,0.312501 0.874019,0.468751 1.557617,0.46875 0.677078,1e-6 1.279291,-0.148111 1.806641,-0.444336 0.527336,-0.296222 0.914706,-0.701495 1.162109,-1.21582 0.188794,-0.397133 0.283195,-0.98307 0.283203,-1.757813 z"
     style="font-size:20px;fill:#ffffff"
     id="path3128" /><path
     d="m 27.791016,20 0,-10.3710937 1.582031,0 0,1.5722657 c 0.403642,-0.735668 0.776363,-1.2206932 1.118164,-1.4550782 0.341792,-0.2343646 0.717769,-0.3515519 1.12793,-0.3515625 0.592442,1.06e-5 1.194655,0.1888124 1.80664,0.5664062 l -0.605469,1.6308595 c -0.429693,-0.253898 -0.85938,-0.380851 -1.289062,-0.380859 -0.384119,8e-6 -0.729171,0.115568 -1.035156,0.346679 -0.305994,0.231128 -0.524092,0.551766 -0.654297,0.961914 -0.195316,0.625007 -0.292972,1.3086 -0.292969,2.050782 l 0,5.429687 z"
     style="font-size:20px;fill:#ffffff"
     id="path3130" /><path
     d="M 34.412109,23.994141 34.216797,22.34375 c 0.384113,0.104164 0.719399,0.156247 1.005859,0.15625 0.390623,-3e-6 0.703122,-0.06511 0.9375,-0.195313 0.234372,-0.13021 0.426429,-0.312501 0.576172,-0.546875 0.110674,-0.175782 0.28971,-0.61198 0.537109,-1.308593 0.03255,-0.09766 0.08463,-0.240886 0.15625,-0.429688 l -3.935546,-10.3906247 1.894531,0 2.158203,6.0058597 c 0.279943,0.761722 0.530594,1.562502 0.751953,2.402343 0.201818,-0.807289 0.442703,-1.595048 0.722656,-2.363281 l 2.216797,-6.0449217 1.757813,0 -3.945313,10.5468747 c -0.423182,1.139322 -0.751958,1.923826 -0.986328,2.353516 -0.312504,0.579424 -0.670577,1.004228 -1.074219,1.274414 -0.403649,0.270178 -0.885419,0.405269 -1.445312,0.405273 -0.338544,-4e-6 -0.716148,-0.07162 -1.132813,-0.214843 z"
     style="font-size:20px;fill:#ffffff"
     id="path3132" /><path
     d="m 43.835937,14.814453 c 0,-1.920566 0.533853,-3.34309 1.601563,-4.267578 0.891924,-0.7682189 1.979162,-1.1523331 3.261719,-1.1523437 1.425774,1.06e-5 2.591137,0.4671325 3.496093,1.4013667 0.904938,0.934253 1.357412,2.224942 1.357422,3.872071 -1e-5,1.334639 -0.200205,2.384443 -0.600586,3.149414 -0.4004,0.764975 -0.983081,1.35905 -1.748046,1.782226 -0.764982,0.423177 -1.599942,0.634766 -2.504883,0.634766 -1.451827,0 -2.625329,-0.465495 -3.520508,-1.396484 -0.895183,-0.930988 -1.342774,-2.272132 -1.342774,-4.023438 z m 1.806641,0 c -2e-6,1.328129 0.289711,2.322594 0.869141,2.983399 0.579423,0.660808 1.308589,0.991212 2.1875,0.99121 0.872389,2e-6 1.5983,-0.332029 2.177734,-0.996093 0.579419,-0.66406 0.869132,-1.676429 0.869141,-3.03711 -9e-6,-1.282545 -0.29135,-2.254224 -0.874024,-2.915039 -0.582689,-0.660798 -1.306972,-0.991201 -2.172851,-0.991211 -0.878911,1e-5 -1.608077,0.328785 -2.1875,0.986329 -0.57943,0.657559 -0.869143,1.650397 -0.869141,2.978515 z"
     style="font-size:20px;fill:#ffffff"
     id="path3134" /><path
     d="m 55.623047,20 0,-10.3710937 1.582031,0 0,1.4746097 c 0.761715,-1.1393133 1.861975,-1.7089741 3.300781,-1.7089847 0.624994,1.06e-5 1.199537,0.1123151 1.723633,0.336914 0.52408,0.2246194 0.916332,0.5192157 1.176758,0.8837887 0.260407,0.364593 0.442699,0.797535 0.546875,1.298829 0.06509,0.325528 0.09765,0.895189 0.09766,1.708984 l 0,6.376953 -1.757812,0 0,-6.308594 c -8e-6,-0.716139 -0.06837,-1.25162 -0.205078,-1.606445 -0.136727,-0.35481 -0.37924,-0.638012 -0.727539,-0.849609 -0.348314,-0.21158 -0.756843,-0.317374 -1.225586,-0.317383 -0.748703,9e-6 -1.394862,0.237639 -1.938477,0.71289 -0.543623,0.475269 -0.815433,1.37696 -0.81543,2.705079 l 0,5.664062 z"
     style="font-size:20px;fill:#ffffff"
     id="path3136" /></g>
	<g
   transform="translate(100,130)"
   id="g33">	
		<use
   xlink:href="#arrow"
   transform="rotate(180)"
   style="fill:#ff0000"
   id="use35" />
		<g
   style="font-size:18px;fill:#ff0000"
   id="text37"><path
     d="m 26.415039,-50 0,-12.884766 5.712891,0 c 1.148429,1.3e-5 2.021475,0.115736 2.61914,0.347168 0.597646,0.231458 1.075185,0.640149 1.432617,1.226075 0.357411,0.585948 0.536122,1.233408 0.536133,1.942382 -1.1e-5,0.914071 -0.29591,1.684578 -0.887695,2.311524 -0.591807,0.626959 -1.505869,1.025396 -2.742188,1.195312 0.451164,0.216803 0.793937,0.43067 1.028321,0.641602 0.498037,0.457036 0.969716,1.028324 1.415039,1.713867 L 37.770508,-50 l -2.144531,0 -1.705079,-2.680664 c -0.498055,-0.773434 -0.908211,-1.36523 -1.230468,-1.775391 -0.322273,-0.410151 -0.610847,-0.69726 -0.865723,-0.861328 -0.254889,-0.164057 -0.514166,-0.278315 -0.777832,-0.342773 -0.193365,-0.04101 -0.509771,-0.06152 -0.949219,-0.06152 l -1.977539,0 0,5.72168 z m 1.705078,-7.198242 3.665039,0 c 0.77929,7e-6 1.388664,-0.08056 1.828125,-0.241699 0.439444,-0.161126 0.773428,-0.418938 1.001953,-0.773438 0.228506,-0.354484 0.342764,-0.739737 0.342774,-1.155762 -10e-6,-0.609365 -0.221201,-1.110341 -0.663574,-1.502929 -0.442392,-0.392567 -1.141122,-0.588856 -2.096192,-0.588867 l -4.078125,0 z"
     style="font-size:18px;fill:#ff0000"
     id="path3139" /><path
     d="m 45.583984,-53.005859 1.634766,0.202148 c -0.257821,0.95508 -0.73536,1.69629 -1.432617,2.223633 -0.697273,0.527344 -1.587897,0.791015 -2.671875,0.791016 -1.365238,-10e-7 -2.447757,-0.42041 -3.247559,-1.261231 -0.799806,-0.840818 -1.199707,-2.020016 -1.199707,-3.537598 0,-1.570306 0.404296,-2.789055 1.212891,-3.65625 0.808591,-0.867178 1.857418,-1.300771 3.146484,-1.300781 1.248041,1e-5 2.267571,0.424814 3.058594,1.274414 0.791007,0.849617 1.186514,2.044928 1.186523,3.585938 -9e-6,0.09375 -0.0029,0.234379 -0.0088,0.421875 l -6.960937,0 c 0.05859,1.025394 0.34863,1.810549 0.870117,2.355468 0.521481,0.544924 1.171871,0.817384 1.951172,0.817383 0.580072,10e-7 1.075189,-0.152342 1.485351,-0.457031 0.41015,-0.304686 0.735345,-0.791013 0.975586,-1.458984 z m -5.194336,-2.557618 5.211914,0 c -0.07032,-0.785149 -0.269538,-1.374016 -0.597656,-1.766601 -0.503912,-0.609367 -1.157232,-0.914054 -1.959961,-0.914063 -0.726566,9e-6 -1.337406,0.243172 -1.832519,0.729493 -0.49512,0.486335 -0.769046,1.136725 -0.821778,1.951171 z"
     style="font-size:18px;fill:#ff0000"
     id="path3141" /><path
     d="m 55.269531,-50 0,-1.177734 c -0.591803,0.925781 -1.46192,1.388671 -2.610351,1.388672 -0.744145,-10e-7 -1.428226,-0.205079 -2.052246,-0.615235 -0.624026,-0.410155 -1.107424,-0.982909 -1.450196,-1.718262 -0.342774,-0.735348 -0.51416,-1.580562 -0.51416,-2.535644 0,-0.931635 0.155273,-1.776849 0.46582,-2.535645 0.310546,-0.758781 0.776366,-1.340323 1.397461,-1.744629 0.621091,-0.404287 1.315426,-0.606435 2.083008,-0.606445 0.562495,1e-5 1.063471,0.118662 1.50293,0.355957 0.439446,0.237314 0.796868,0.546396 1.072265,0.927246 l 0,-4.623047 1.573243,0 0,12.884766 z m -5.000976,-4.658203 c -3e-6,1.195316 0.25195,2.08887 0.755859,2.680664 0.503903,0.591798 1.098629,0.887696 1.78418,0.887695 0.691401,10e-7 1.278802,-0.282713 1.762207,-0.848144 0.483391,-0.565427 0.72509,-1.42822 0.725097,-2.588379 -7e-6,-1.277338 -0.2461,-2.214837 -0.738281,-2.8125 -0.492193,-0.597649 -1.098638,-0.896476 -1.819336,-0.896485 -0.703129,9e-6 -1.290531,0.287118 -1.762207,0.861329 -0.471682,0.574225 -0.707522,1.479498 -0.707519,2.71582 z"
     style="font-size:18px;fill:#ff0000"
     id="path3143" /></g>	
		<use
   xlink:href="#arrow"
   transform="rotate(60)"
   style="fill:#0000ff"
   id="use39" />
		<g
   style="font-size:18px;text-anchor:middle;fill:#0000ff"
   id="text41"><path
     d="m -71.716797,65 0,-12.884766 4.833985,0 c 0.984367,1.3e-5 1.773917,0.130384 2.368652,0.391114 0.594717,0.260754 1.060537,0.662121 1.397461,1.204101 0.336904,0.542003 0.50536,1.108897 0.505371,1.700684 -1.1e-5,0.55079 -0.149424,1.069344 -0.448242,1.555664 -0.298838,0.486336 -0.75001,0.878913 -1.353516,1.177734 0.779288,0.228523 1.378408,0.618171 1.797363,1.168946 0.418935,0.550786 0.628407,1.201176 0.628418,1.951171 -1.1e-5,0.603519 -0.127452,1.164554 -0.382324,1.683106 -0.254893,0.518556 -0.569834,0.918458 -0.944824,1.199707 -0.375009,0.281251 -0.845224,0.493653 -1.410645,0.637207 C -65.290535,64.928223 -65.983405,65 -66.803711,65 z m 1.705078,-7.470703 2.786133,0 c 0.755853,7e-6 1.297845,-0.0498 1.625977,-0.149414 0.433586,-0.128899 0.760245,-0.342766 0.97998,-0.641602 0.219718,-0.298819 0.329581,-0.673819 0.32959,-1.125 -9e-6,-0.427724 -0.102548,-0.804189 -0.307617,-1.129394 -0.205087,-0.325185 -0.498055,-0.547841 -0.878906,-0.667969 -0.380867,-0.120106 -1.034187,-0.180164 -1.959961,-0.180176 l -2.575196,0 z m 0,5.950195 3.208008,0 c 0.550775,2e-6 0.937493,-0.02051 1.160156,-0.06152 0.392571,-0.07031 0.720695,-0.187498 0.984375,-0.351563 0.263664,-0.16406 0.48046,-0.402829 0.650391,-0.716308 0.169913,-0.313474 0.254873,-0.67529 0.254883,-1.08545 -10e-6,-0.480464 -0.123056,-0.897944 -0.369141,-1.252441 -0.246102,-0.354487 -0.587411,-0.60351 -1.023926,-0.74707 -0.436531,-0.143549 -1.064948,-0.215326 -1.885254,-0.215332 l -2.979492,0 z"
     style="font-size:18px;text-anchor:middle;fill:#0000ff"
     id="path3146" /><path
     d="m -59.860352,65 0,-12.884766 1.582032,0 0,12.884766 z"
     style="font-size:18px;text-anchor:middle;fill:#0000ff"
     id="path3148" /><path
     d="m -49.700195,65 0,-1.371094 c -0.726569,1.054688 -1.713873,1.582031 -2.961914,1.582031 -0.550785,0 -1.064945,-0.105468 -1.542481,-0.316406 -0.477541,-0.210937 -0.832033,-0.476073 -1.063476,-0.79541 -0.231447,-0.319335 -0.394045,-0.710448 -0.487793,-1.17334 -0.06446,-0.310544 -0.09668,-0.802731 -0.09668,-1.476562 l 0,-5.783203 1.582031,0 0,5.176757 c -3e-6,0.826176 0.03222,1.382816 0.09668,1.669922 0.09961,0.416018 0.310544,0.742678 0.632812,0.979981 0.322262,0.237306 0.720699,0.355958 1.195313,0.355957 0.474604,10e-7 0.919916,-0.121581 1.335937,-0.364746 0.41601,-0.243163 0.710443,-0.574217 0.883301,-0.993164 0.172845,-0.418943 0.25927,-1.026852 0.259278,-1.823731 l 0,-5.000976 1.582031,0 0,9.333984 z"
     style="font-size:18px;text-anchor:middle;fill:#0000ff"
     id="path3150" /><path
     d="m -39.408203,61.994141 1.634766,0.202148 c -0.257822,0.95508 -0.735361,1.69629 -1.432618,2.223633 -0.697272,0.527344 -1.587897,0.791015 -2.671875,0.791015 -1.365238,0 -2.447756,-0.420409 -3.247558,-1.26123 -0.799806,-0.840818 -1.199708,-2.020016 -1.199707,-3.537598 -10e-7,-1.570306 0.404295,-2.789055 1.21289,-3.65625 0.808591,-0.867178 1.857418,-1.300771 3.146485,-1.300781 1.24804,1e-5 2.267571,0.424814 3.058593,1.274414 0.791007,0.849617 1.186515,2.044928 1.186524,3.585938 -9e-6,0.09375 -0.0029,0.234379 -0.0088,0.421875 l -6.960938,0 c 0.05859,1.025394 0.34863,1.810549 0.870118,2.355468 0.52148,0.544924 1.17187,0.817384 1.951171,0.817383 0.580073,10e-7 1.075189,-0.152342 1.485352,-0.457031 0.410149,-0.304686 0.735344,-0.791013 0.975586,-1.458984 z m -5.194336,-2.557618 5.211914,0 c -0.07032,-0.785149 -0.269539,-1.374016 -0.597656,-1.766601 -0.503913,-0.609367 -1.157233,-0.914054 -1.959961,-0.914063 -0.726567,9e-6 -1.337406,0.243172 -1.83252,0.729493 -0.49512,0.486335 -0.769045,1.136725 -0.821777,1.951171 z"
     style="font-size:18px;text-anchor:middle;fill:#0000ff"
     id="path3152" /></g>	
		<use
   xlink:href="#arrow"
   transform="rotate(-60)"
   style="fill:#00ff00"
   id="use43" />	
		<g
   style="font-size:18px;text-anchor:middle;fill:#00ff00"
   id="text45"><path
     d="m 37.386719,59.946289 0,-1.511719 5.458008,-0.0088 0,4.78125 c -0.837903,0.66797 -1.70216,1.170411 -2.592774,1.507324 -0.890634,0.336914 -1.804696,0.505371 -2.742187,0.505372 -1.265632,-1e-6 -2.415533,-0.270996 -3.449707,-0.812989 -1.034183,-0.541991 -1.814944,-1.325681 -2.342286,-2.351074 -0.527345,-1.025387 -0.791016,-2.170893 -0.791015,-3.436523 -1e-6,-1.253899 0.262206,-2.424308 0.786621,-3.511231 0.524412,-1.086903 1.278805,-1.894031 2.263183,-2.421387 0.984371,-0.52733 2.118158,-0.791002 3.401368,-0.791015 0.931632,1.3e-5 1.773916,0.150892 2.526855,0.452637 0.752919,0.30177 1.343251,0.722179 1.770996,1.26123 0.427722,0.539073 0.752917,1.242198 0.975586,2.109375 l -1.538086,0.421875 c -0.19337,-0.65624 -0.433604,-1.171865 -0.720703,-1.546875 -0.287119,-0.374989 -0.697275,-0.675282 -1.230469,-0.900879 -0.533211,-0.225574 -1.125008,-0.338367 -1.77539,-0.338379 -0.779304,1.2e-5 -1.453131,0.118664 -2.021485,0.355957 -0.568364,0.237316 -1.026859,0.549327 -1.375488,0.936035 -0.348636,0.386729 -0.619632,0.811533 -0.812988,1.274414 -0.328128,0.796884 -0.49219,1.661141 -0.492188,2.592774 -2e-6,1.148443 0.197751,2.109379 0.593262,2.882812 0.395504,0.773441 0.971187,1.347659 1.727051,1.722657 0.755853,0.375001 1.558587,0.562501 2.408203,0.5625 0.738273,10e-7 1.458975,-0.142089 2.162109,-0.42627 0.703115,-0.284178 1.236318,-0.5874 1.59961,-0.909668 l 0,-2.399414 z"
     style="font-size:18px;text-anchor:middle;fill:#00ff00"
     id="path3155" /><path
     d="m 45.129883,65 0,-9.333984 1.423828,0 0,1.415039 c 0.363278,-0.662101 0.698727,-1.098624 1.006348,-1.309571 0.307613,-0.210928 0.645991,-0.316396 1.015136,-0.316406 0.533198,1e-5 1.07519,0.169931 1.625977,0.509766 l -0.544922,1.467773 c -0.386724,-0.228508 -0.773442,-0.342765 -1.160156,-0.342773 -0.345708,8e-6 -0.656254,0.104011 -0.931641,0.312011 -0.275394,0.208016 -0.471683,0.49659 -0.588867,0.865723 -0.175784,0.562506 -0.263675,1.17774 -0.263672,1.845703 l 0,4.886719 z"
     style="font-size:18px;text-anchor:middle;fill:#00ff00"
     id="path3157" /><path
     d="m 57.548828,61.994141 1.634766,0.202148 c -0.257822,0.95508 -0.73536,1.69629 -1.432617,2.223633 -0.697273,0.527344 -1.587897,0.791015 -2.671875,0.791015 -1.365239,0 -2.447757,-0.420409 -3.247559,-1.26123 -0.799806,-0.840818 -1.199708,-2.020016 -1.199707,-3.537598 -10e-7,-1.570306 0.404296,-2.789055 1.212891,-3.65625 0.808591,-0.867178 1.857418,-1.300771 3.146484,-1.300781 1.248041,1e-5 2.267571,0.424814 3.058594,1.274414 0.791006,0.849617 1.186514,2.044928 1.186523,3.585938 -9e-6,0.09375 -0.0029,0.234379 -0.0088,0.421875 l -6.960937,0 c 0.05859,1.025394 0.34863,1.810549 0.870117,2.355468 0.52148,0.544924 1.17187,0.817384 1.951172,0.817383 0.580072,10e-7 1.075189,-0.152342 1.485351,-0.457031 0.410149,-0.304686 0.735344,-0.791013 0.975586,-1.458984 z m -5.194336,-2.557618 5.211914,0 c -0.07032,-0.785149 -0.269538,-1.374016 -0.597656,-1.766601 -0.503913,-0.609367 -1.157232,-0.914054 -1.959961,-0.914063 -0.726567,9e-6 -1.337406,0.243172 -1.832519,0.729493 -0.49512,0.486335 -0.769046,1.136725 -0.821778,1.951171 z"
     style="font-size:18px;text-anchor:middle;fill:#00ff00"
     id="path3159" /><path
     d="m 67.568359,61.994141 1.634766,0.202148 c -0.257821,0.95508 -0.73536,1.69629 -1.432617,2.223633 -0.697273,0.527344 -1.587897,0.791015 -2.671875,0.791015 -1.365238,0 -2.447757,-0.420409 -3.247559,-1.26123 -0.799806,-0.840818 -1.199707,-2.020016 -1.199707,-3.537598 0,-1.570306 0.404296,-2.789055 1.212891,-3.65625 0.808591,-0.867178 1.857418,-1.300771 3.146484,-1.300781 1.248041,1e-5 2.267571,0.424814 3.058594,1.274414 0.791007,0.849617 1.186514,2.044928 1.186523,3.585938 -9e-6,0.09375 -0.0029,0.234379 -0.0088,0.421875 l -6.960937,0 c 0.05859,1.025394 0.34863,1.810549 0.870117,2.355468 0.521481,0.544924 1.171871,0.817384 1.951172,0.817383 0.580072,10e-7 1.075189,-0.152342 1.485351,-0.457031 0.41015,-0.304686 0.735345,-0.791013 0.975586,-1.458984 z m -5.194336,-2.557618 5.211914,0 c -0.07032,-0.785149 -0.269538,-1.374016 -0.597656,-1.766601 -0.503912,-0.609367 -1.157232,-0.914054 -1.959961,-0.914063 -0.726566,9e-6 -1.337406,0.243172 -1.832519,0.729493 -0.49512,0.486335 -0.769046,1.136725 -0.821778,1.951171 z"
     style="font-size:18px;text-anchor:middle;fill:#00ff00"
     id="path3161" /><path
     d="m 71.198242,65 0,-9.333984 1.423828,0 0,1.327148 c 0.685544,-1.025382 1.675777,-1.538076 2.970703,-1.538086 0.562494,1e-5 1.079584,0.101084 1.55127,0.303223 0.471672,0.202157 0.824699,0.467294 1.059082,0.79541 0.234367,0.328133 0.398429,0.717781 0.492187,1.168945 0.05859,0.292976 0.08788,0.805671 0.08789,1.538086 l 0,5.739258 -1.582031,0 0,-5.677734 c -7e-6,-0.644525 -0.06153,-1.126458 -0.18457,-1.445801 -0.123054,-0.319329 -0.341316,-0.574211 -0.654786,-0.764649 -0.313482,-0.190421 -0.681158,-0.285636 -1.103027,-0.285644 -0.673833,8e-6 -1.255375,0.213875 -1.744629,0.641601 -0.489261,0.427742 -0.733889,1.239265 -0.733887,2.434571 l 0,5.097656 z"
     style="font-size:18px;text-anchor:middle;fill:#00ff00"
     id="path3163" /></g>
		<path
   style="fill:#ffffff;stroke:none"
   d="M 25,0 C 25,13.807119 13.807119,25 0,25 -13.807119,25 -25,13.807119 -25,0 c 0,-13.807119 11.192881,-25 25,-25 13.807119,0 25,11.192881 25,25 z"
   id="circle47" />
	</g>
</g>
<g
   transform="translate(0,406)"
   id="g49">
	<path
   style="fill:#000000;stroke:none"
   d="m 0,0 200,0 0,200 -200,0 z"
   id="rect51" />
	<g
   style="font-size:20px;fill:#ffffff"
   id="text53"><path
     d="M 1.9707031,20 7.46875,5.6835937 l 2.0410156,0 L 15.369141,20 l -2.158203,0 -1.669922,-4.335937 -5.9863285,0 L 3.9824219,20 z m 4.1308594,-5.878906 4.8535155,0 L 9.4609375,10.15625 C 9.0052013,8.951834 8.66666,7.9622516 8.4453125,7.1875 8.2630146,8.1054806 8.0058534,9.0169381 7.6738281,9.921875 z"
     style="font-size:20px;fill:#ffffff"
     id="path3052" /><path
     d="m 16.677734,20 0,-10.3710937 1.582032,0 0,1.4746097 c 0.761715,-1.1393133 1.861974,-1.7089741 3.300781,-1.7089847 0.624993,1.06e-5 1.199537,0.1123151 1.723633,0.336914 0.52408,0.2246194 0.916332,0.5192157 1.176757,0.8837887 0.260408,0.364593 0.442699,0.797535 0.546875,1.298829 0.06509,0.325528 0.09765,0.895189 0.09766,1.708984 l 0,6.376953 -1.757813,0 0,-6.308594 c -8e-6,-0.716139 -0.06837,-1.25162 -0.205078,-1.606445 -0.136726,-0.35481 -0.379239,-0.638012 -0.727539,-0.849609 -0.348314,-0.21158 -0.756842,-0.317374 -1.225586,-0.317383 -0.748703,9e-6 -1.394861,0.237639 -1.938476,0.71289 -0.543624,0.475269 -0.815433,1.37696 -0.81543,2.705079 l 0,5.664062 z"
     style="font-size:20px;fill:#ffffff"
     id="path3054" /><path
     d="m 31.648437,18.427734 0.253907,1.552735 c -0.494797,0.104166 -0.937505,0.15625 -1.328125,0.15625 -0.638025,0 -1.132816,-0.100912 -1.484375,-0.302735 -0.351565,-0.201822 -0.598961,-0.467121 -0.742188,-0.795898 -0.143231,-0.328775 -0.214845,-1.020506 -0.214844,-2.075195 l 0,-5.966797 -1.289062,0 0,-1.3671877 1.289062,0 0,-2.5683594 1.748047,-1.0546875 0,3.6230469 1.767578,0 0,1.3671877 -1.767578,0 0,6.064453 c -3e-6,0.501304 0.03092,0.82357 0.09277,0.966797 0.06185,0.143231 0.162757,0.257163 0.302734,0.341797 0.13997,0.08464 0.340165,0.126954 0.600586,0.126953 0.195308,1e-6 0.452469,-0.02278 0.771484,-0.06836 z"
     style="font-size:20px;fill:#ffffff"
     id="path3056" /><path
     d="m 33.367187,7.7050781 0,-2.0214844 1.757813,0 0,2.0214844 z m 0,12.2949219 0,-10.3710937 1.757813,0 L 35.125,20 z"
     style="font-size:20px;fill:#ffffff"
     id="path3058" /><path
     d="m 39.431641,20 -1.63086,0 0,-14.3164063 1.757813,0 0,5.1074223 c 0.742183,-0.9309798 1.689448,-1.3964741 2.841797,-1.3964847 0.638014,1.06e-5 1.241854,0.1285912 1.811523,0.3857421 0.569653,0.2571716 1.038403,0.6184996 1.40625,1.0839846 0.367829,0.465503 0.655915,1.027026 0.864258,1.68457 0.208323,0.657559 0.31249,1.360683 0.3125,2.109375 -1e-5,1.777347 -0.439463,3.151044 -1.31836,4.121094 -0.878914,0.970052 -1.9336,1.455078 -3.164062,1.455078 -1.223963,0 -2.184248,-0.511067 -2.880859,-1.533203 z m -0.01953,-5.263672 c -3e-6,1.243494 0.169268,2.14193 0.507813,2.695313 0.553381,0.904949 1.302078,1.357423 2.246094,1.357421 0.768222,2e-6 1.432284,-0.333657 1.992187,-1.000976 0.559888,-0.667315 0.839835,-1.66178 0.839844,-2.983398 -9e-6,-1.354161 -0.268563,-2.353509 -0.805664,-2.998047 -0.537117,-0.644523 -1.18653,-0.966788 -1.948242,-0.966797 -0.768235,9e-6 -1.432296,0.333667 -1.992188,1.000976 -0.559899,0.667326 -0.839847,1.632494 -0.839844,2.895508 z"
     style="font-size:20px;fill:#ffffff"
     id="path3060" /><path
     d="m 55.710937,18.720703 c -0.651049,0.553386 -1.277676,0.944011 -1.879882,1.171875 -0.602219,0.227865 -1.248378,0.341797 -1.938477,0.341797 -1.139326,0 -2.014976,-0.27832 -2.626953,-0.834961 -0.61198,-0.556639 -0.917969,-1.267902 -0.917969,-2.133789 0,-0.507809 0.115559,-0.971676 0.34668,-1.391602 0.231118,-0.419917 0.533853,-0.756831 0.908203,-1.010742 0.374347,-0.253901 0.795896,-0.445958 1.264648,-0.576172 0.345049,-0.09114 0.865882,-0.17903 1.5625,-0.263671 1.419265,-0.169265 2.464186,-0.371088 3.134766,-0.605469 0.0065,-0.240879 0.0098,-0.393873 0.0098,-0.458985 -8e-6,-0.716138 -0.166024,-1.220694 -0.498047,-1.513671 -0.449226,-0.397127 -1.116543,-0.595694 -2.001953,-0.595704 -0.826828,1e-5 -1.437179,0.144866 -1.831055,0.434571 -0.393883,0.289722 -0.685224,0.802416 -0.874023,1.538086 l -1.71875,-0.234375 c 0.156248,-0.735669 0.41341,-1.329744 0.771484,-1.782227 0.358071,-0.452464 0.875648,-0.800771 1.552734,-1.0449218 0.67708,-0.2441302 1.461584,-0.3662003 2.353516,-0.3662109 0.88541,1.06e-5 1.60481,0.1041771 2.158203,0.3125 0.553377,0.2083434 0.960278,0.4703877 1.220703,0.7861327 0.260408,0.315764 0.442699,0.714527 0.546875,1.196289 0.05858,0.299487 0.08788,0.839851 0.08789,1.621094 l 0,2.34375 c -1e-5,1.634117 0.03742,2.667645 0.112305,3.100586 0.07486,0.432943 0.222971,0.847982 0.444335,1.245117 L 56.0625,20 c -0.1823,-0.364583 -0.299487,-0.791015 -0.351563,-1.279297 z m -0.146484,-3.925781 c -0.638028,0.260421 -1.595058,0.481775 -2.871094,0.664062 -0.72266,0.104171 -1.233727,0.221359 -1.533203,0.351563 -0.299482,0.130212 -0.530602,0.320642 -0.693359,0.571289 -0.162763,0.250654 -0.244143,0.528974 -0.244141,0.834961 -2e-6,0.468752 0.177406,0.859377 0.532227,1.171875 0.354814,0.312501 0.874019,0.468751 1.557617,0.46875 0.677078,1e-6 1.279291,-0.148111 1.806641,-0.444336 0.527336,-0.296222 0.914706,-0.701495 1.162109,-1.21582 0.188794,-0.397133 0.283195,-0.98307 0.283203,-1.757813 z"
     style="font-size:20px;fill:#ffffff"
     id="path3062" /><path
     d="m 60.056641,20 0,-10.3710937 1.582031,0 0,1.5722657 c 0.403642,-0.735668 0.776363,-1.2206932 1.118164,-1.4550782 0.341792,-0.2343646 0.717769,-0.3515519 1.12793,-0.3515625 0.592442,1.06e-5 1.194655,0.1888124 1.80664,0.5664062 l -0.605469,1.6308595 c -0.429693,-0.253898 -0.85938,-0.380851 -1.289062,-0.380859 -0.384119,8e-6 -0.729171,0.115568 -1.035156,0.346679 -0.305994,0.231128 -0.524092,0.551766 -0.654297,0.961914 -0.195316,0.625007 -0.292972,1.3086 -0.292969,2.050782 l 0,5.429687 z"
     style="font-size:20px;fill:#ffffff"
     id="path3064" /><path
     d="M 66.677734,23.994141 66.482422,22.34375 c 0.384113,0.104164 0.719399,0.156247 1.005859,0.15625 0.390623,-3e-6 0.703122,-0.06511 0.9375,-0.195313 0.234372,-0.13021 0.426429,-0.312501 0.576172,-0.546875 0.110674,-0.175782 0.28971,-0.61198 0.537109,-1.308593 0.03255,-0.09766 0.08463,-0.240886 0.15625,-0.429688 l -3.935546,-10.3906247 1.894531,0 2.158203,6.0058597 c 0.279943,0.761722 0.530594,1.562502 0.751953,2.402343 0.201818,-0.807289 0.442703,-1.595048 0.722656,-2.363281 l 2.216797,-6.0449217 1.757813,0 -3.945313,10.5468747 c -0.423182,1.139322 -0.751958,1.923826 -0.986328,2.353516 -0.312504,0.579424 -0.670577,1.004228 -1.074219,1.274414 -0.403649,0.270178 -0.885419,0.405269 -1.445312,0.405273 -0.338544,-4e-6 -0.716148,-0.07162 -1.132813,-0.214843 z"
     style="font-size:20px;fill:#ffffff"
     id="path3066" /><path
     d="m 76.101562,14.814453 c 0,-1.920566 0.533853,-3.34309 1.601563,-4.267578 0.891924,-0.7682189 1.979162,-1.1523331 3.261719,-1.1523437 1.425774,1.06e-5 2.591137,0.4671325 3.496093,1.4013667 0.904938,0.934253 1.357412,2.224942 1.357422,3.872071 -1e-5,1.334639 -0.200205,2.384443 -0.600586,3.149414 -0.4004,0.764975 -0.983081,1.35905 -1.748046,1.782226 -0.764982,0.423177 -1.599942,0.634766 -2.504883,0.634766 -1.451827,0 -2.625329,-0.465495 -3.520508,-1.396484 -0.895183,-0.930988 -1.342774,-2.272132 -1.342774,-4.023438 z m 1.806641,0 c -2e-6,1.328129 0.289711,2.322594 0.869141,2.983399 0.579423,0.660808 1.308589,0.991212 2.1875,0.99121 0.872389,2e-6 1.5983,-0.332029 2.177734,-0.996093 0.579419,-0.66406 0.869132,-1.676429 0.869141,-3.03711 -9e-6,-1.282545 -0.29135,-2.254224 -0.874024,-2.915039 -0.582689,-0.660798 -1.306972,-0.991201 -2.172851,-0.991211 -0.878911,1e-5 -1.608077,0.328785 -2.1875,0.986329 -0.57943,0.657559 -0.869143,1.650397 -0.869141,2.978515 z"
     style="font-size:20px;fill:#ffffff"
     id="path3068" /><path
     d="m 87.888672,20 0,-10.3710937 1.582031,0 0,1.4746097 c 0.761715,-1.1393133 1.861975,-1.7089741 3.300781,-1.7089847 0.624994,1.06e-5 1.199537,0.1123151 1.723633,0.336914 0.52408,0.2246194 0.916332,0.5192157 1.176758,0.8837887 0.260407,0.364593 0.442699,0.797535 0.546875,1.298829 0.06509,0.325528 0.09765,0.895189 0.09766,1.708984 l 0,6.376953 -1.757812,0 0,-6.308594 c -8e-6,-0.716139 -0.06837,-1.25162 -0.205078,-1.606445 -0.136727,-0.35481 -0.37924,-0.638012 -0.727539,-0.849609 -0.348314,-0.21158 -0.756843,-0.317374 -1.225586,-0.317383 -0.748703,9e-6 -1.394862,0.237639 -1.938477,0.71289 -0.543623,0.475269 -0.815433,1.37696 -0.81543,2.705079 l 0,5.664062 z"
     style="font-size:20px;fill:#ffffff"
     id="path3070" /></g>
	<g
   transform="translate(100,95)"
   id="g55">	
		<use
   xlink:href="#arrow"
   transform="rotate(00)"
   style="fill:#00ffff"
   id="use57" />
		<g
   style="font-size:18px;fill:#00ffff"
   id="text59"><path
     d="m 24.973633,50 4.948242,-12.884766 1.836914,0 L 37.032227,50 l -1.942383,0 -1.50293,-3.902344 -5.387695,0 L 26.78418,50 z m 3.717773,-5.291016 4.368164,0 -1.344726,-3.568359 c -0.410163,-1.083974 -0.71485,-1.974599 -0.914063,-2.671875 -0.164068,0.826183 -0.395513,1.646494 -0.694336,2.460937 z"
     style="font-size:18px;fill:#00ffff"
     id="path3073" /><path
     d="m 38.209961,50 0,-9.333984 1.423828,0 0,1.327148 c 0.685544,-1.025382 1.675777,-1.538076 2.970703,-1.538086 0.562494,1e-5 1.079583,0.101084 1.55127,0.303223 0.471672,0.202157 0.824699,0.467294 1.059082,0.79541 0.234366,0.328133 0.398429,0.717781 0.492187,1.168945 0.05859,0.292976 0.08788,0.805671 0.08789,1.538086 l 0,5.739258 -1.582031,0 0,-5.677734 c -8e-6,-0.644525 -0.06153,-1.126458 -0.184571,-1.445801 -0.123053,-0.319329 -0.341315,-0.574211 -0.654785,-0.764649 -0.313482,-0.190421 -0.681158,-0.285636 -1.103027,-0.285644 -0.673833,8e-6 -1.255375,0.213875 -1.744629,0.641601 -0.489261,0.427742 -0.73389,1.239265 -0.733887,2.434571 l 0,5.097656 z"
     style="font-size:18px;fill:#00ffff"
     id="path3075" /><path
     d="m 51.683594,48.584961 0.228515,1.397461 c -0.445317,0.09375 -0.843754,0.140625 -1.195312,0.140625 -0.574222,0 -1.019534,-0.09082 -1.335938,-0.272461 -0.316408,-0.18164 -0.539064,-0.42041 -0.667968,-0.716309 -0.128908,-0.295897 -0.193361,-0.918455 -0.19336,-1.867675 l 0,-5.370118 -1.160156,0 0,-1.230468 1.160156,0 0,-2.311524 1.573242,-0.949219 0,3.260743 1.590821,0 0,1.230468 -1.590821,0 0,5.458008 c -3e-6,0.451174 0.02783,0.741213 0.0835,0.870117 0.05566,0.128908 0.146481,0.231447 0.27246,0.307618 0.125973,0.07617 0.306149,0.114259 0.540528,0.114257 0.175777,2e-6 0.407222,-0.02051 0.694336,-0.06152 z"
     style="font-size:18px;fill:#00ffff"
     id="path3077" /><path
     d="m 53.230469,38.93457 0,-1.819336 1.582031,0 0,1.819336 z m 0,11.06543 0,-9.333984 1.582031,0 0,9.333984 z"
     style="font-size:18px;fill:#00ffff"
     id="path3079" /><path
     d="m 57.211914,50 0,-9.333984 1.423828,0 0,1.415039 c 0.363278,-0.662101 0.698727,-1.098624 1.006348,-1.309571 0.307613,-0.210928 0.645992,-0.316396 1.015137,-0.316406 0.533198,1e-5 1.075189,0.169931 1.625976,0.509766 l -0.544922,1.467773 c -0.386724,-0.228508 -0.773442,-0.342765 -1.160156,-0.342773 -0.345707,8e-6 -0.656254,0.104011 -0.931641,0.312011 -0.275394,0.208016 -0.471682,0.49659 -0.588867,0.865723 -0.175784,0.562506 -0.263674,1.17774 -0.263672,1.845703 l 0,4.886719 z"
     style="font-size:18px;fill:#00ffff"
     id="path3081" /><path
     d="m 69.630859,46.994141 1.634766,0.202148 c -0.257821,0.95508 -0.73536,1.69629 -1.432617,2.223633 -0.697273,0.527344 -1.587897,0.791015 -2.671875,0.791015 -1.365238,0 -2.447757,-0.420409 -3.247559,-1.26123 -0.799806,-0.840818 -1.199707,-2.020016 -1.199707,-3.537598 0,-1.570306 0.404296,-2.789055 1.212891,-3.65625 0.808591,-0.867178 1.857418,-1.300771 3.146484,-1.300781 1.248041,1e-5 2.267571,0.424814 3.058594,1.274414 0.791007,0.849617 1.186514,2.044928 1.186523,3.585938 -9e-6,0.09375 -0.0029,0.234379 -0.0088,0.421875 l -6.960937,0 c 0.05859,1.025394 0.34863,1.810549 0.870117,2.355468 0.521481,0.544924 1.171871,0.817384 1.951172,0.817383 0.580072,10e-7 1.075189,-0.152342 1.485351,-0.457031 0.41015,-0.304686 0.735345,-0.791013 0.975586,-1.458984 z m -5.194336,-2.557618 5.211914,0 c -0.07032,-0.785149 -0.269538,-1.374016 -0.597656,-1.766601 -0.503912,-0.609367 -1.157232,-0.914054 -1.959961,-0.914063 -0.726566,9e-6 -1.337406,0.243172 -1.832519,0.729493 -0.49512,0.486335 -0.769046,1.136725 -0.821778,1.951171 z"
     style="font-size:18px;fill:#00ffff"
     id="path3083" /><path
     d="m 79.316406,50 0,-1.177734 c -0.591803,0.925781 -1.46192,1.388671 -2.610351,1.388671 -0.744145,0 -1.428226,-0.205078 -2.052246,-0.615234 -0.624026,-0.410155 -1.107424,-0.982909 -1.450196,-1.718262 -0.342774,-0.735348 -0.51416,-1.580562 -0.51416,-2.535644 0,-0.931635 0.155273,-1.776849 0.46582,-2.535645 0.310546,-0.758781 0.776366,-1.340323 1.397461,-1.744629 0.621091,-0.404287 1.315426,-0.606435 2.083008,-0.606445 0.562495,1e-5 1.063471,0.118662 1.50293,0.355957 0.439446,0.237314 0.796868,0.546396 1.072265,0.927246 l 0,-4.623047 1.573243,0 0,12.884766 z M 74.31543,45.341797 c -3e-6,1.195316 0.25195,2.08887 0.755859,2.680664 0.503903,0.591798 1.098629,0.887696 1.78418,0.887695 0.691401,10e-7 1.278802,-0.282713 1.762207,-0.848144 0.483391,-0.565427 0.72509,-1.42822 0.725097,-2.588379 -7e-6,-1.277338 -0.2461,-2.214837 -0.738281,-2.8125 -0.492193,-0.597649 -1.098638,-0.896476 -1.819336,-0.896485 -0.703129,9e-6 -1.290531,0.287118 -1.762207,0.861329 -0.471682,0.574225 -0.707522,1.479498 -0.707519,2.71582 z"
     style="font-size:18px;fill:#00ffff"
     id="path3085" /></g>	
		<use
   xlink:href="#arrow"
   transform="rotate(-120)"
   style="fill:#ffff00"
   id="use61" />
		<g
   style="font-size:18px;text-anchor:middle;fill:#ffff00"
   id="text63"><path
     d="m 22.418945,-55 4.948242,-12.884766 1.836915,0 L 34.477539,-55 l -1.942383,0 -1.502929,-3.902344 -5.387696,0 L 24.229492,-55 z m 3.717774,-5.291016 4.368164,0 -1.344727,-3.568359 c -0.410162,-1.083974 -0.71485,-1.974599 -0.914062,-2.671875 -0.164068,0.826183 -0.395513,1.646494 -0.694336,2.460938 z"
     style="font-size:18px;text-anchor:middle;fill:#ffff00"
     id="path3088" /><path
     d="m 35.655273,-55 0,-9.333984 1.423829,0 0,1.327148 c 0.685543,-1.025382 1.675777,-1.538076 2.970703,-1.538086 0.562494,1e-5 1.079583,0.101084 1.551269,0.303223 0.471672,0.202157 0.824699,0.467294 1.059082,0.79541 0.234367,0.328133 0.398429,0.717781 0.492188,1.168945 0.05859,0.292976 0.08788,0.805671 0.08789,1.538086 l 0,5.739258 -1.582031,0 0,-5.677734 c -7e-6,-0.644525 -0.06153,-1.126458 -0.18457,-1.445801 -0.123054,-0.319329 -0.341315,-0.574211 -0.654785,-0.764649 -0.313483,-0.190421 -0.681158,-0.285636 -1.103028,-0.285644 -0.673832,8e-6 -1.255375,0.213875 -1.744629,0.641601 -0.48926,0.427742 -0.733889,1.239265 -0.733886,2.434571 l 0,5.097656 z"
     style="font-size:18px;text-anchor:middle;fill:#ffff00"
     id="path3090" /><path
     d="m 49.128906,-56.415039 0.228516,1.397461 c -0.445317,0.09375 -0.843754,0.140625 -1.195313,0.140625 -0.574221,0 -1.019534,-0.09082 -1.335937,-0.272461 -0.316408,-0.18164 -0.539064,-0.42041 -0.667969,-0.716309 -0.128908,-0.295897 -0.193361,-0.918455 -0.193359,-1.867675 l 0,-5.370118 -1.160157,0 0,-1.230468 1.160157,0 0,-2.311524 1.573242,-0.949219 0,3.260743 1.59082,0 0,1.230468 -1.59082,0 0,5.458008 c -3e-6,0.451174 0.02783,0.741213 0.0835,0.870117 0.05566,0.128908 0.146481,0.231447 0.272461,0.307618 0.125973,0.07617 0.306149,0.114259 0.540527,0.114257 0.175777,2e-6 0.407223,-0.02051 0.694336,-0.06152 z"
     style="font-size:18px;text-anchor:middle;fill:#ffff00"
     id="path3092" /><path
     d="m 50.675781,-66.06543 0,-1.819336 1.582031,0 0,1.819336 z m 0,11.06543 0,-9.333984 1.582031,0 0,9.333984 z"
     style="font-size:18px;text-anchor:middle;fill:#ffff00"
     id="path3094" /><path
     d="m 56.133789,-55 -1.467773,0 0,-12.884766 1.582031,0 0,4.59668 c 0.667965,-0.837881 1.520503,-1.256826 2.557617,-1.256836 0.574213,1e-5 1.117669,0.115732 1.630371,0.347168 0.512688,0.231454 0.934563,0.556649 1.265625,0.975586 0.331046,0.418953 0.590323,0.924324 0.777832,1.516113 0.187491,0.591803 0.281241,1.224615 0.28125,1.898438 -9e-6,1.599612 -0.395517,2.835939 -1.186523,3.708984 -0.791023,0.873047 -1.740241,1.30957 -2.847657,1.309571 -1.101566,-10e-7 -1.965823,-0.459961 -2.592773,-1.379883 z m -0.01758,-4.737305 c -3e-6,1.119145 0.152341,1.927737 0.457031,2.425782 0.498043,0.814454 1.171871,1.22168 2.021485,1.221679 0.6914,10e-7 1.289056,-0.300291 1.792968,-0.900879 0.503899,-0.600583 0.755852,-1.495602 0.75586,-2.685058 -8e-6,-1.218744 -0.241707,-2.118158 -0.725098,-2.698242 -0.483405,-0.580071 -1.067877,-0.870109 -1.753418,-0.870118 -0.691411,9e-6 -1.289066,0.300301 -1.792969,0.900879 -0.503909,0.600593 -0.755862,1.469244 -0.755859,2.605957 z"
     style="font-size:18px;text-anchor:middle;fill:#ffff00"
     id="path3096" /><path
     d="m 64.65918,-55 0,-12.884766 1.582031,0 0,12.884766 z"
     style="font-size:18px;text-anchor:middle;fill:#ffff00"
     id="path3098" /><path
     d="m 74.819336,-55 0,-1.371094 c -0.726569,1.054688 -1.713873,1.582031 -2.961914,1.582032 -0.550785,-10e-7 -1.064945,-0.105469 -1.542481,-0.316407 -0.477541,-0.210937 -0.832033,-0.476073 -1.063476,-0.79541 -0.231447,-0.319335 -0.394044,-0.710448 -0.487793,-1.17334 -0.06445,-0.310544 -0.09668,-0.802731 -0.09668,-1.476562 l 0,-5.783203 1.582031,0 0,5.176757 c -2e-6,0.826176 0.03222,1.382816 0.09668,1.669922 0.09961,0.416018 0.310544,0.742678 0.632813,0.979981 0.322261,0.237306 0.720699,0.355958 1.195312,0.355957 0.474604,10e-7 0.919916,-0.121581 1.335938,-0.364746 0.416009,-0.243163 0.710442,-0.574217 0.8833,-0.993164 0.172845,-0.418943 0.259271,-1.026852 0.259278,-1.823731 l 0,-5.000976 1.582031,0 0,9.333984 z"
     style="font-size:18px;text-anchor:middle;fill:#ffff00"
     id="path3100" /><path
     d="m 85.111328,-58.005859 1.634766,0.202148 c -0.257822,0.95508 -0.73536,1.69629 -1.432617,2.223633 -0.697273,0.527344 -1.587897,0.791015 -2.671875,0.791016 -1.365239,-10e-7 -2.447757,-0.42041 -3.247559,-1.261231 -0.799806,-0.840818 -1.199708,-2.020016 -1.199707,-3.537598 -1e-6,-1.570306 0.404296,-2.789055 1.212891,-3.65625 0.808591,-0.867178 1.857418,-1.300771 3.146484,-1.300781 1.248041,1e-5 2.267571,0.424814 3.058594,1.274414 0.791006,0.849617 1.186514,2.044928 1.186523,3.585938 -9e-6,0.09375 -0.0029,0.234379 -0.0088,0.421875 l -6.960937,0 c 0.05859,1.025394 0.34863,1.810549 0.870117,2.355468 0.52148,0.544924 1.17187,0.817384 1.951172,0.817383 0.580072,10e-7 1.075189,-0.152342 1.485351,-0.457031 0.410149,-0.304686 0.735344,-0.791013 0.975586,-1.458984 z m -5.194336,-2.557618 5.211914,0 c -0.07032,-0.785149 -0.269538,-1.374016 -0.597656,-1.766601 -0.503913,-0.609367 -1.157232,-0.914054 -1.959961,-0.914063 -0.726567,9e-6 -1.337406,0.243172 -1.832519,0.729493 -0.49512,0.486335 -0.769046,1.136725 -0.821778,1.951171 z"
     style="font-size:18px;text-anchor:middle;fill:#ffff00"
     id="path3102" /></g>	
		<use
   xlink:href="#arrow"
   transform="rotate(120)"
   style="fill:#ff00ff"
   id="use65" />	
		<g
   style="font-size:18px;text-anchor:middle;fill:#ff00ff"
   id="text67"><path
     d="m -93.592773,-55 4.948242,-12.884766 1.836914,0 L -81.53418,-55 l -1.942382,0 -1.50293,-3.902344 -5.387695,0 L -91.782227,-55 z m 3.717773,-5.291016 4.368164,0 -1.344726,-3.568359 c -0.410163,-1.083974 -0.71485,-1.974599 -0.914063,-2.671875 -0.164068,0.826183 -0.395513,1.646494 -0.694336,2.460938 z"
     style="font-size:18px;text-anchor:middle;fill:#ff00ff"
     id="path3105" /><path
     d="m -80.356445,-55 0,-9.333984 1.423828,0 0,1.327148 c 0.685543,-1.025382 1.675777,-1.538076 2.970703,-1.538086 0.562494,1e-5 1.079583,0.101084 1.551269,0.303223 0.471673,0.202157 0.8247,0.467294 1.059083,0.79541 0.234366,0.328133 0.398428,0.717781 0.492187,1.168945 0.05858,0.292976 0.08788,0.805671 0.08789,1.538086 l 0,5.739258 -1.582032,0 0,-5.677734 c -7e-6,-0.644525 -0.06153,-1.126458 -0.18457,-1.445801 -0.123054,-0.319329 -0.341315,-0.574211 -0.654785,-0.764649 -0.313483,-0.190421 -0.681158,-0.285636 -1.103027,-0.285644 -0.673833,8e-6 -1.255376,0.213875 -1.744629,0.641601 -0.489261,0.427742 -0.73389,1.239265 -0.733887,2.434571 l 0,5.097656 z"
     style="font-size:18px;text-anchor:middle;fill:#ff00ff"
     id="path3107" /><path
     d="m -66.882812,-56.415039 0.228515,1.397461 c -0.445317,0.09375 -0.843754,0.140625 -1.195312,0.140625 -0.574222,0 -1.019534,-0.09082 -1.335938,-0.272461 -0.316408,-0.18164 -0.539064,-0.42041 -0.667969,-0.716309 -0.128907,-0.295897 -0.19336,-0.918455 -0.193359,-1.867675 l 0,-5.370118 -1.160156,0 0,-1.230468 1.160156,0 0,-2.311524 1.573242,-0.949219 0,3.260743 1.590821,0 0,1.230468 -1.590821,0 0,5.458008 c -3e-6,0.451174 0.02783,0.741213 0.0835,0.870117 0.05566,0.128908 0.146481,0.231447 0.272461,0.307618 0.125973,0.07617 0.306149,0.114259 0.540528,0.114257 0.175777,2e-6 0.407222,-0.02051 0.694336,-0.06152 z"
     style="font-size:18px;text-anchor:middle;fill:#ff00ff"
     id="path3109" /><path
     d="m -65.335937,-66.06543 0,-1.819336 1.582031,0 0,1.819336 z m 0,11.06543 0,-9.333984 1.582031,0 0,9.333984 z"
     style="font-size:18px;text-anchor:middle;fill:#ff00ff"
     id="path3111" /><path
     d="m -61.626953,-54.226562 1.538086,0.228515 c 0.06445,0.474608 0.243161,0.820311 0.536133,1.03711 0.392574,0.292966 0.928707,0.43945 1.608398,0.439453 0.732417,-3e-6 1.297846,-0.146487 1.696289,-0.439453 0.398431,-0.292971 0.667962,-0.703127 0.808594,-1.230469 0.08202,-0.322266 0.12011,-0.999023 0.114258,-2.030274 -0.691413,0.814454 -1.55274,1.22168 -2.583985,1.22168 -1.283206,0 -2.276369,-0.46289 -2.979492,-1.388672 -0.703126,-0.925779 -1.054688,-2.036129 -1.054687,-3.331055 -10e-7,-0.890619 0.161132,-1.712395 0.483398,-2.465332 0.322264,-0.752921 0.789549,-1.334464 1.401856,-1.744628 0.612301,-0.410147 1.331539,-0.615225 2.157714,-0.615235 1.101557,1e-5 2.009759,0.445322 2.72461,1.335938 l 0,-1.125 1.458984,0 0,8.068359 c -9e-6,1.453125 -0.147958,2.482909 -0.443848,3.089355 -0.295906,0.606443 -0.764656,1.085447 -1.40625,1.437012 -0.641607,0.351559 -1.431157,0.52734 -2.368652,0.527344 -1.113285,-4e-6 -2.012698,-0.250492 -2.698242,-0.751465 -0.685548,-0.500979 -1.016602,-1.255373 -0.993164,-2.263183 z m 1.30957,-5.607422 c -2e-6,1.224613 0.243162,2.118166 0.729492,2.680664 0.486325,0.562501 1.095699,0.843751 1.828125,0.84375 0.726557,10e-7 1.335932,-0.279784 1.828125,-0.839356 0.492181,-0.559567 0.738274,-1.437008 0.738282,-2.632324 -8e-6,-1.142572 -0.253425,-2.003899 -0.760254,-2.583984 -0.506842,-0.580071 -1.117682,-0.870109 -1.83252,-0.870118 -0.703129,9e-6 -1.300784,0.285653 -1.792969,0.856934 -0.49219,0.571296 -0.738283,1.41944 -0.738281,2.544434 z"
     style="font-size:18px;text-anchor:middle;fill:#ff00ff"
     id="path3113" /><path
     d="m -51.334961,-55 0,-9.333984 1.423828,0 0,1.415039 c 0.363278,-0.662101 0.698727,-1.098624 1.006348,-1.309571 0.307613,-0.210928 0.645992,-0.316396 1.015137,-0.316406 0.533198,1e-5 1.075189,0.169931 1.625976,0.509766 l -0.544922,1.467773 c -0.386724,-0.228508 -0.773442,-0.342765 -1.160156,-0.342773 -0.345707,8e-6 -0.656254,0.104011 -0.931641,0.312011 -0.275394,0.208016 -0.471682,0.49659 -0.588867,0.865723 -0.175784,0.562506 -0.263674,1.17774 -0.263672,1.845703 l 0,4.886719 z"
     style="font-size:18px;text-anchor:middle;fill:#ff00ff"
     id="path3115" /><path
     d="m -38.916016,-58.005859 1.634766,0.202148 c -0.257821,0.95508 -0.73536,1.69629 -1.432617,2.223633 -0.697273,0.527344 -1.587897,0.791015 -2.671875,0.791016 -1.365238,-10e-7 -2.447757,-0.42041 -3.247559,-1.261231 -0.799806,-0.840818 -1.199707,-2.020016 -1.199707,-3.537598 0,-1.570306 0.404296,-2.789055 1.212891,-3.65625 0.808591,-0.867178 1.857418,-1.300771 3.146484,-1.300781 1.248041,1e-5 2.267571,0.424814 3.058594,1.274414 0.791007,0.849617 1.186514,2.044928 1.186523,3.585938 -9e-6,0.09375 -0.0029,0.234379 -0.0088,0.421875 l -6.960937,0 c 0.05859,1.025394 0.34863,1.810549 0.870117,2.355468 0.521481,0.544924 1.171871,0.817384 1.951172,0.817383 0.580072,10e-7 1.075189,-0.152342 1.485351,-0.457031 0.41015,-0.304686 0.735345,-0.791013 0.975586,-1.458984 z m -5.194336,-2.557618 5.211915,0 c -0.07032,-0.785149 -0.269539,-1.374016 -0.597657,-1.766601 -0.503912,-0.609367 -1.157232,-0.914054 -1.959961,-0.914063 -0.726566,9e-6 -1.337406,0.243172 -1.832519,0.729493 -0.49512,0.486335 -0.769046,1.136725 -0.821778,1.951171 z"
     style="font-size:18px;text-anchor:middle;fill:#ff00ff"
     id="path3117" /><path
     d="m -28.896484,-58.005859 1.634765,0.202148 c -0.257821,0.95508 -0.73536,1.69629 -1.432617,2.223633 -0.697273,0.527344 -1.587897,0.791015 -2.671875,0.791016 -1.365238,-10e-7 -2.447757,-0.42041 -3.247559,-1.261231 -0.799805,-0.840818 -1.199707,-2.020016 -1.199707,-3.537598 0,-1.570306 0.404296,-2.789055 1.212891,-3.65625 0.808591,-0.867178 1.857418,-1.300771 3.146484,-1.300781 1.248041,1e-5 2.267571,0.424814 3.058594,1.274414 0.791007,0.849617 1.186514,2.044928 1.186524,3.585938 -10e-6,0.09375 -0.0029,0.234379 -0.0088,0.421875 l -6.960938,0 c 0.05859,1.025394 0.34863,1.810549 0.870117,2.355468 0.521481,0.544924 1.171871,0.817384 1.951172,0.817383 0.580073,10e-7 1.075189,-0.152342 1.485352,-0.457031 0.410149,-0.304686 0.735344,-0.791013 0.975586,-1.458984 z m -5.194336,-2.557618 5.211914,0 c -0.07032,-0.785149 -0.269539,-1.374016 -0.597656,-1.766601 -0.503913,-0.609367 -1.157233,-0.914054 -1.959961,-0.914063 -0.726567,9e-6 -1.337406,0.243172 -1.83252,0.729493 -0.49512,0.486335 -0.769045,1.136725 -0.821777,1.951171 z"
     style="font-size:18px;text-anchor:middle;fill:#ff00ff"
     id="path3119" /><path
     d="m -25.266602,-55 0,-9.333984 1.423829,0 0,1.327148 c 0.685543,-1.025382 1.675777,-1.538076 2.970703,-1.538086 0.562494,1e-5 1.079583,0.101084 1.551269,0.303223 0.471672,0.202157 0.824699,0.467294 1.059082,0.79541 0.234367,0.328133 0.398429,0.717781 0.492188,1.168945 0.05859,0.292976 0.08788,0.805671 0.08789,1.538086 l 0,5.739258 -1.582031,0 0,-5.677734 c -7e-6,-0.644525 -0.06153,-1.126458 -0.18457,-1.445801 -0.123054,-0.319329 -0.341315,-0.574211 -0.654785,-0.764649 -0.313483,-0.190421 -0.681158,-0.285636 -1.103028,-0.285644 -0.673832,8e-6 -1.255375,0.213875 -1.744629,0.641601 -0.48926,0.427742 -0.733889,1.239265 -0.733886,2.434571 l 0,5.097656 z"
     style="font-size:18px;text-anchor:middle;fill:#ff00ff"
     id="path3121" /></g>
		<path
   style="fill:#ffffff;stroke:none"
   d="M 25,0 C 25,13.807119 13.807119,25 0,25 -13.807119,25 -25,13.807119 -25,0 c 0,-13.807119 11.192881,-25 25,-25 13.807119,0 25,11.192881 25,25 z"
   id="circle69" />
	</g>
</g>


</svg>