<svg width="341.036" height="341.048" xmlns="http://www.w3.org/2000/svg" xmlns:xlink="http://www.w3.org/1999/xlink" id="svg2" overflow="hidden"><defs id="defs16"><linearGradient id="linearGradient5820"><stop offset="0" stop-color="#FFFF00"/><stop offset="1" stop-color="#FFFFFF"/></linearGradient><linearGradient id="linearGradient5352"><stop offset="0"/><stop offset="0.498804" stop-color="#000080"/><stop offset="1"/></linearGradient><linearGradient id="linearGradient5344"><stop offset="0"/><stop offset="0.498804" stop-color="#000080"/><stop offset="1"/></linearGradient><linearGradient id="linearGradient5334"><stop offset="0"/><stop offset="0.5" stop-color="#000080"/><stop offset="1"/></linearGradient><linearGradient id="linearGradient3791"><stop offset="0" stop-color="#FFFFFF"/><stop offset="1" stop-color="#FCFF01"/></linearGradient><linearGradient x1="128.036" y1="46.4296" x2="253.623" y2="319.486" gradientUnits="userSpaceOnUse" spreadMethod="pad" xlink:href="#linearGradient5344" id="linearGradient5340"></linearGradient><radialGradient cx="189.333" cy="234.48" r="75.5" fx="189.333" fy="234.48" gradientUnits="userSpaceOnUse" xlink:href="#linearGradient5820" id="radialGradient5830" gradientTransform="matrix(1.98676 1.23056e-07 -3.83532e-08 1.98675 -186.826 -282.522)"></radialGradient><radialGradient cx="189.333" cy="234.48" r="75.5" fx="189.333" fy="234.48" gradientUnits="userSpaceOnUse" xlink:href="#linearGradient5820" id="radialGradient5896" gradientTransform="matrix(1.98676 1.23056e-07 -3.83532e-08 1.98675 -186.826 -282.522)"></radialGradient><linearGradient x1="128.036" y1="46.4296" x2="253.623" y2="319.486" gradientUnits="userSpaceOnUse" spreadMethod="pad" xlink:href="#linearGradient5344" id="linearGradient5898"></linearGradient></defs><g id="g5886" transform="translate(-18.7955 37.1675)"><path d="M339.333 183.333C339.333 266.176 272.176 333.333 189.333 333.333 106.491 333.333 39.3333 266.176 39.3333 183.333 39.3333 124.205 74.0696 70.5925 128.036 46.4296L189.333 183.333Z" id="path3001" stroke="#000000" fill="url(#linearGradient5898)" transform="matrix(0.912692 0.408649 -0.408649 0.912692 91.4418 -111.366)"/><text id="text5832" font-family="Sans" font-weight="400" font-size="15" text-anchor="end" xml:space="preserve" x="168.133" y="148.027"><tspan fill="#FFFFFF" font-weight="700" font-size="12" x="168.133" y="148.027">68.3% Dark</tspan><tspan fill="#FFFFFF" font-weight="700" font-size="12" x="168.133" y="161.027">Energy</tspan></text></g><g id="g5891" transform="translate(-18.7955 37.1675)"><path d="M128.036 46.4296C203.646 12.576 292.383 46.4261 326.237 122.036 328.549 127.198 330.566 132.488 332.28 137.878L189.333 183.333Z" id="path3003" stroke="#000000" fill="#323296" transform="matrix(0.912692 0.408649 -0.408649 0.912692 91.4418 -111.366)"/><text id="text5832-8" font-family="Sans" font-weight="400" font-size="15" text-anchor="end" xml:space="preserve" x="290.316" y="86.4789"><tspan fill="#FFFFFF" font-weight="700" font-size="12" x="290.316" y="86.4789">26.8% Dark</tspan><tspan fill="#FFFFFF" font-weight="700" font-size="12" x="290.316" y="98.4789">Matter</tspan></text></g><g id="g5880" transform="translate(-18.7955 37.1675)"><path d="M332.28 137.878C336.954 152.577 339.333 167.909 339.333 183.333L189.333 183.333Z" id="path3003-1" stroke="#000000" fill="url(#radialGradient5896)" transform="matrix(0.912692 0.408649 -0.408649 0.912692 91.4418 -111.366)"/><text id="text5832-8-2" font-family="Sans" font-weight="400" font-size="15" text-anchor="end" xml:space="preserve" x="333.375" y="157.23"><tspan font-weight="700" font-size="11.5" x="333.375" y="157.23">4.9% Ordinary</tspan><tspan font-weight="700" font-size="11.5" x="333.375" y="168.73">Matter</tspan></text></g></svg>