<svg width="17.138em" height="2.7545em" viewBox="0 -1508.9 14757.5 2372" xmlns="http://www.w3.org/2000/svg" xmlns:xlink="http://www.w3.org/1999/xlink" overflow="hidden"><defs><path d="M228 637C205.333 637 193.333 638.333 192 641 191.333 642.333 191 645 191 649 191 665 194.667 676 202 682 203.333 682.667 209 683 219 683 246.333 681.667 291.667 681 355 681 377.667 681 398.667 681 418 681 437.333 681 452.333 681.333 463 682 473.667 682.667 480.333 682.667 483 682 493.667 682 499 678.667 499 672 499 670.667 498.333 666 497 658 493.667 646.667 490.333 640 487 638L485 638C483.667 638 482 638 480 638 478 638 475.667 638 473 638 470.333 638 467.333 637.667 464 637 460.667 636.333 457.667 636.333 455 637 429 636.333 412.333 635.333 405 634 397.667 632.667 391.667 629 387 623 385 620.333 374.333 579.333 355 500 350.333 482.667 345.333 463.333 340 442 334.667 420.667 330.667 405 328 395L324 380C324 378.667 372.333 378 469 378L614 378 615 381C615 383 625.333 424 646 504 664.667 580.667 674 621.667 674 627 674 632.333 655 635.667 617 637 601.667 637 591.667 637.667 587 639 582.333 640.333 580 643.333 580 648 580 649.333 580.667 653.333 582 660 584.667 671.333 586.667 677.667 588 679 589.333 680.333 594.667 681.333 604 682 607.333 682 621.333 681.667 646 681 670.667 680.333 702 680 740 680 781.333 680 813 680.333 835 681 857 681.667 869 682 871 682 882.333 682 888 678.667 888 672 888 654 884 642.667 876 638L874 638C872.667 638 871 638 869 638 867 638 864.667 638 862 638 859.333 638 856.333 637.667 853 637 849.667 636.333 846.667 636.333 844 637 818 636.333 801.333 635.333 794 634 786.667 632.667 780.667 629 776 623 774 619.667 750 525.333 704 340 658 154.667 634.667 60.6667 634 58 634 53.3333 635.333 51 638 51 643.333 49 661.333 47.3333 692 46L723 46C727 40.6667 729 37.6667 729 37 729 36.3333 728 30.3333 726 19 723.333 10.3333 720 4 716 0L701 0C676.333 1.33333 631.667 2 567 2 544.333 2 523.333 2 504 2 484.667 2 469.333 2 458 2 446.667 2 439.667 1.66667 437 1 425.667 1 420 4 420 10 420 13.3333 421 18 423 24 426.333 36.6667 429.667 43.6667 433 45 435.667 45.6667 440.667 46 448 46L454 46C472 46 492 47 514 49 518 49.6667 520.667 50 522 50 523.333 50 525.333 51.6667 528 55 530.667 58.3333 532.667 61.3333 534 64 535.333 66.6667 537.333 72.6667 540 82 542.667 91.3333 545 100.667 547 110 549 119.333 552.667 133.667 558 153 562.667 171.667 566.333 186.667 569 198 591 286 602 330.333 602 331 602 331.667 553.667 332 457 332L312 332 279 197C256.333 107.667 245 61.3333 245 58 245 53.3333 247.667 50.3333 253 49 258.333 47.6667 275 46.6667 303 46L334 46C338 40.6667 340 37.6667 340 37 340 36.3333 339 30.3333 337 19 334.333 10.3333 331 4 327 0L312 0C287.333 1.33333 242.667 2 178 2 155.333 2 134.333 2 115 2 95.6667 2 80.3333 2 69 2 57.6667 2 50.6667 1.66667 48 1 36.6667 1 31 4 31 10 31 11.3333 32 16 34 24 37.3333 36.6667 40.6667 43.6667 44 45 46.6667 45.6667 51.6667 46 59 46L65 46C83 46 103 47 125 49 134.333 51 140.667 55 144 61 146 63.6667 170 156.333 216 339 262 521.667 285 618 285 628 285 632.667 266 635.667 228 637Z" id="E1-MJMATHI-48"/><path d="M94 250C94 296 97.3333 339.667 104 381 110.667 422.333 118.333 458 127 488 135.667 518 148 547.333 164 576 180 604.667 192.667 627 202 643 211.333 659 225.333 676.333 244 695 262.667 713.667 273.667 725 277 729 280.333 733 288.667 740 302 750L315 750 319 750C328.333 750 333 747 333 741 333 739 327.333 732 316 720 304.667 708 291 690.333 275 667 259 643.667 242.667 615 226 581 209.333 547 195.333 501 184 443 172.667 385 167 320.667 167 250 167 179.333 172.667 115.333 184 58 195.333 0.666667 209-45.6667 225-81 241-116.333 257.333-145 274-167 290.667-189 304.667-206.667 316-220 327.333-233.333 333-240.333 333-241 333-247 328-250 318-250L315-250 302-250 274-226C211.333-169.333 165.667-98.6667 137-14 108.333 70.6667 94 158.667 94 250Z" id="E1-MJMAIN-28"/><path d="M347 338C340.333 338 322.667 341.667 294 349 265.333 356.333 244.333 360 231 360 217.667 360 206.333 358.667 197 356 187.667 353.333 180 350 174 346 168 342 164 338.333 162 335 160 331.667 157.667 328 155 324L153 320C151 318 146 317 138 317 124 317 117 319.667 117 325 117 328.333 118 333 120 339 128.667 365 143 387.333 163 406 183 424.667 205 436 229 440 237 441.333 242.667 442 246 442 262.667 442 277.667 436.333 291 425 304.333 413.667 317 402.667 329 392 341 381.333 353.667 375.667 367 375 381.667 375 396.333 386 411 408 425.667 430 433.333 441 434 441 434.667 441.667 439.667 442 449 442L462 442C466 438 468 435.333 468 434 468 431.333 466.333 426.667 463 420 459.667 413.333 455 406.333 449 399 443 391.667 437.333 384.333 432 377 426.667 369.667 422 363.333 418 358L411 349C382.333 315 337 270 275 214 213 158 174.667 122 160 106L148 94 163 93C177.667 93 199 89.3333 227 82 255 74.6667 276 71 290 71 315.333 71 338.667 77.3333 360 90 381.333 102.667 395.333 119.333 402 140 404.667 146 407 149.667 409 151 411 152.333 416 153 424 153 436.667 153 443 149.667 443 143 443 139.667 442.667 136.667 442 134 430.667 92.6667 408.667 58.3333 376 31 343.333 3.66667 310.667-10.3333 278-11 260.667-11 245.333-5.33333 232 6 218.667 17.3333 205.667 28.6667 193 40 180.333 51.3333 167.667 57 155 57 125.667 57 99.3333 37 76-3 72-8.33333 66.3333-11 59-11L54-11 41-11C37-7 35-4 35-2 35 8 54.3333 36.6667 93 84 119 114 163 157.333 225 214 287 270.667 325.333 306.667 340 322 348 332.667 350.333 338 347 338Z" id="E1-MJMATHI-7A"/><path d="M60 749 64 750C67.3333 750 70.6667 750 74 750L86 750 114 726C176.667 669.333 222.333 598.667 251 514 279.667 429.333 294 341.333 294 250 294 204.667 290.667 161 284 119 277.333 77 269.667 41.3333 261 12 252.333-17.3333 240-46.6667 224-76 208-105.333 195.333-127.667 186-143 176.667-158.333 163-175.333 145-194 127-212.667 116.333-223.667 113-227 109.667-230.333 102-236.667 90-246 88-248 86.6667-249.333 86-250L74-250C68.6667-250 65-250 63-250 61-250 59.3333-249 58-247 56.6667-245 55.6667-242 55-238 55.6667-237.333 59.3333-233 66-225 169.333-117.667 221 40.6667 221 250 221 459.333 169.333 617.667 66 725 59.3333 733 55.6667 737.333 55 738 55 743.333 56.6667 747 60 749Z" id="E1-MJMAIN-29"/><path d="M56 347C56 355.667 60.6667 362.333 70 367L707 367C717 361.667 722 355 722 347 722 339.667 717.333 333.333 708 328L390 327 72 327C61.3333 330.333 56 337 56 347ZM56 153C56 163 61.3333 169.667 72 173L708 173C717.333 166.333 722 159.667 722 153 722 144.333 717 137.667 707 133L70 133C60.6667 137.667 56 144.333 56 153Z" id="E1-MJMAIN-3D"/><path d="M84 237C84 237 84 241.333 84 250 84 258.667 88.6667 265.333 98 270L679 270C689 264.667 694 258 694 250 694 242 689 235.333 679 230L98 230C88.6667 234.667 84 241.333 84 250Z" id="E1-MJMAIN-2212"/><path d="M213 578 200 573C190.667 569.667 177.333 566.333 160 563 142.667 559.667 123.333 557.333 102 556L83 556 83 602 102 602C133.333 603.333 162.333 608.333 189 617 215.667 625.667 234.333 633.667 245 641 255.667 648.333 265 655.667 273 663 274.333 665 278.333 666 285 666 291 666 296.667 664 302 660L302 361 303 61C307.667 56.3333 311.667 53.3333 315 52 318.333 50.6667 326.333 49.3333 339 48 351.667 46.6667 372.333 46 401 46L427 46 427 0 416 0C402 2 349 3 257 3 166.333 3 114 2 100 0L88 0 88 46 114 46C128.667 46 141.333 46 152 46 162.667 46 171 46.3333 177 47 183 47.6667 188.333 48.6667 193 50 197.667 51.3333 200.333 52 201 52 201.667 52 203.667 53.6667 207 57 210.333 60.3333 212.333 61.6667 213 61L213 578Z" id="E1-MJMAIN-31"/><path d="M56 237C56 237 56 241.333 56 250 56 258.667 60.6667 265.333 70 270L369 270 369 420 370 570C376.667 578.667 383 583 389 583 397.667 583 404.333 578 409 568L409 270 707 270C717 264.667 722 258 722 250 722 242 717 235.333 707 230L409 230 409-68C403.667-77.3333 397.667-82 391-82L389-82 387-82C379-82 373-77.3333 369-68L369 230 70 230C60.6667 234.667 56 241.333 56 250Z" id="E1-MJMAIN-2B"/><path d="M366 683C366.667 683 390.667 684.667 438 688 485.333 691.333 509.667 693.333 511 694 519 694 523 691.333 523 686 523 681.333 498.667 580.667 450 384 401.333 187.333 376.333 87 375 83 373.667 79 373.333 74 374 68 374 40 383.333 26 402 26 408 26.6667 414.667 29.6667 422 35 436 48.3333 449.667 80.3333 463 131 467 144.333 470.333 151.333 473 152 474.333 152.667 477.667 153 483 153L487 153 491 153C501 153 506 150.333 506 145 506 141.667 505 136.333 503 129 494.333 95.6667 484.333 68.6667 473 48 461.667 27.3333 452.333 14 445 8 437.667 2 428.333-3.33333 417-8 411.667-9.33333 403.667-10 393-10 370.333-10 351.333-5 336 5 320.667 15 310.667 25.3333 306 36L300 51C299.333 51.6667 298 51.3333 296 50 294.667 48.6667 293.333 47.3333 292 46 252.667 8.66667 212.667-10 172-10 135.333-10 103 3.33333 75 30 47 56.6667 33 99 33 157 33 189 39.6667 221.667 53 255 66.3333 288.333 82.3333 317 101 341 132.333 379 163.667 405.333 195 420 226.333 434.667 254.667 442 280 442 317.333 442 345.333 428 364 400 367.333 396 369 394.667 369 396 369.667 398.667 378.667 435 396 505 413.333 575 422.667 612 424 616 424 624.667 421.667 630 417 632 412.333 634 399.333 635.667 378 637L357 637C353 641 351 643.667 351 645 351 646.333 351.667 652.667 353 664 356.333 676.667 360.667 683 366 683ZM352 326C336.667 378.667 311.667 405 277 405 253.667 405 231.333 394.667 210 374 188.667 353.333 172 326.333 160 293 140.667 240.333 127 185.667 119 129 119 127 119 123.333 119 118 119 112.667 118.667 108.667 118 106 118 76 124 55.3333 136 44 148 32.6667 162.333 26.6667 179 26 215 26 252 50 290 98L298 109 352 326Z" id="E1-MJMATHI-64"/><path d="M26 385C21.3333 389.667 19 393 19 395 19 397.667 20 403 22 411 24 419 25.6667 423.667 27 425 28.3333 428.333 31.3333 430 36 430 40.6667 430 57.6667 430.333 87 431L140 431 159 511C161 518.333 163.333 528 166 540 168.667 552 171 560.667 173 566 175 571.333 177 578 179 586 181 594 183.667 599.667 187 603 190.333 606.333 193.667 610.333 197 615 200.333 619.667 205 622.667 211 624 217 625.333 223 626 229 626 241 625.333 249.333 621.667 254 615 258.667 608.333 261 602 261 596 261 591.333 258 575.667 252 549 246 522.333 239.333 496 232 470L222 433C222 431.667 238.667 431 272 431L323 431C327.667 426.333 330 422.667 330 420 330 405.333 325.667 393.667 317 385L210 385 174 240C148 133.333 135 76 135 68 135 40 144 26 162 26 185.333 26 208 37.3333 230 60 252 82.6667 269.667 110.667 283 144 284.333 148 286 150.333 288 151 290 151.667 295 152.333 303 153L307 153C317 153 322 150.333 322 145 322 143 321 139 319 133 315.667 122.333 309.667 109.667 301 95 292.333 80.3333 281 64.6667 267 48 253 31.3333 236 17.3333 216 6 196-5.33333 175.667-11 155-11 135-11 116-6 98 4 80 14 67 31.3333 59 56 57.6667 61.3333 57 70.3333 57 83L57 101 92 241C115.333 335 127.333 382.333 128 383 128 384.333 111 385 77 385L26 385Z" id="E1-MJMATHI-74"/><path d="M55 319C55 346.333 60.6667 371 72 393 83.3333 415 97.3333 432 114 444 130.667 456 147 465.333 163 472 179 478.667 193 482 205 482 206.333 482 209 482 213 482 217 482 220.333 482.333 223 483 249 483 273.333 478 296 468 318.667 458 351 439.667 393 413L443 381C482.333 357.667 519 346 553 346 590.333 346 622.333 355.667 649 375 675.667 394.333 690.667 420.667 694 454 694 461.333 695.333 468 698 474 700.667 480 704 483 708 483 717.333 483 722 472.667 722 452 722 408 706.333 370 675 338 643.667 306 603.667 289.667 555 289 527.667 289 498.667 296 468 310 437.333 324 410.667 339.667 388 357 365.333 374.333 338.667 390 308 404 277.333 418 249.333 425.333 224 426 184 426 151 415 125 393 99 371 85 346 83 318 81.6667 298.667 77 289 69 289 59.6667 289 55 299 55 319ZM55 85C55 112.333 60.6667 137 72 159 83.3333 181 97.3333 198 114 210 130.667 222 147 231.333 163 238 179 244.667 193 248 205 248 206.333 248 209 248 213 248 217 248 220.333 248.333 223 249 249 249 273.333 244 296 234 318.667 224 351 205.667 393 179L443 147C482.333 123.667 519 112 553 112 590.333 112 622.333 121.667 649 141 675.667 160.333 690.667 186.667 694 220 694 239.333 698.667 249 708 249 717.333 249 722 238.333 722 217 722 174.333 706.333 136.667 675 104 643.667 71.3333 603.667 55 555 55 527.667 55 498.667 62 468 76 437.333 90 410.667 105.667 388 123 365.333 140.333 338.667 156 308 170 277.333 184 249.333 191.333 224 192 184 192 151 181 125 159 99 137 85 112 83 84 81 64.6667 76.3333 55 69 55 59.6667 55 55 65 55 85Z" id="E1-MJMAIN-2248"/><path d="M51 0C47.6667 2.66667 46 5 46 7 46 8.33333 102.333 125 215 357 327.667 589 385.333 706.333 388 709 390 713.667 399.333 716 416 716 431.333 716 440.667 713.667 444 709 446 706.333 503.333 589 616 357 728.667 125 785.333 8.33333 786 7 786 5 784.333 2.66667 781 0L51 0ZM507 344 384 596 137 92 383 91 630 91C630 92.3333 589 176.667 507 344Z" id="E1-MJMAIN-394"/><path d="M78 60C78 76 83.6667 90 95 102 106.333 114 120.667 120 138 120 154 120 168 114.667 180 104 192 93.3333 198.333 79 199 61 199 44.3333 193.333 30 182 18 170.667 6 156.333 0 139 0 121.667 0 107.333 5.66667 96 17 84.6667 28.3333 78.6667 42.6667 78 60Z" id="E1-MJMAIN-2E"/></defs><g stroke="currentColor" stroke-width="0" fill="currentColor" transform="scale(1 -1)"><use width="100%" height="100%" xlink:href="#E1-MJMATHI-48"></use><use x="888" width="100%" height="100%" xlink:href="#E1-MJMAIN-28"></use><use x="1278" width="100%" height="100%" xlink:href="#E1-MJMATHI-7A"></use><use x="1746" width="100%" height="100%" xlink:href="#E1-MJMAIN-29"></use><use x="2413" width="100%" height="100%" xlink:href="#E1-MJMAIN-3D"></use><use x="3470" width="100%" height="100%" xlink:href="#E1-MJMAIN-2212"></use><g transform="translate(4248 0)"><g transform="translate(120 0)"><rect x="0" y="220" width="2311" height="60" stroke="none"/><use x="905" y="676" width="100%" height="100%" xlink:href="#E1-MJMAIN-31"></use><g transform="translate(60 -687)"><use width="100%" height="100%" xlink:href="#E1-MJMAIN-31"></use><use x="722" width="100%" height="100%" xlink:href="#E1-MJMAIN-2B"></use><use x="1723" width="100%" height="100%" xlink:href="#E1-MJMATHI-7A"></use></g></g></g><g transform="translate(6800 0)"><g transform="translate(120 0)"><rect x="0" y="220" width="1112" height="60" stroke="none"/><g transform="translate(60 676)"><use width="100%" height="100%" xlink:href="#E1-MJMATHI-64"></use><use x="523" width="100%" height="100%" xlink:href="#E1-MJMATHI-7A"></use></g><g transform="translate(113 -715)"><use width="100%" height="100%" xlink:href="#E1-MJMATHI-64"></use><use x="523" width="100%" height="100%" xlink:href="#E1-MJMATHI-74"></use></g></g></g><use x="8430" width="100%" height="100%" xlink:href="#E1-MJMAIN-2248"></use><use x="9486" width="100%" height="100%" xlink:href="#E1-MJMAIN-2212"></use><g transform="translate(10265 0)"><g transform="translate(120 0)"><rect x="0" y="220" width="2311" height="60" stroke="none"/><use x="905" y="676" width="100%" height="100%" xlink:href="#E1-MJMAIN-31"></use><g transform="translate(60 -687)"><use width="100%" height="100%" xlink:href="#E1-MJMAIN-31"></use><use x="722" width="100%" height="100%" xlink:href="#E1-MJMAIN-2B"></use><use x="1723" width="100%" height="100%" xlink:href="#E1-MJMATHI-7A"></use></g></g></g><g transform="translate(12817 0)"><g transform="translate(120 0)"><rect x="0" y="220" width="1422" height="60" stroke="none"/><g transform="translate(60 676)"><use width="100%" height="100%" xlink:href="#E1-MJMAIN-394"></use><use x="833" width="100%" height="100%" xlink:href="#E1-MJMATHI-7A"></use></g><g transform="translate(113 -737)"><use width="100%" height="100%" xlink:href="#E1-MJMAIN-394"></use><use x="833" width="100%" height="100%" xlink:href="#E1-MJMATHI-74"></use></g></g></g><use x="14479" width="100%" height="100%" xlink:href="#E1-MJMAIN-2E"></use></g></svg>